<svg width="189" height="739" viewBox="0 0 189 739" fill="none" xmlns="http://www.w3.org/2000/svg">
<rect width="189" height="220" rx="12" fill="#C4C4C4"/>
<path d="M6.772 240L4.432 232.08H5.428L7.384 239.124L9.244 232.08H10.336L12.196 239.148L14.152 232.08H15.1L12.772 240H11.584L10.18 234.864L9.772 233.076H9.76L9.352 234.864L7.96 240H6.772ZM16.3426 240V234H17.1226L17.2546 234.984C17.5906 234.248 18.2306 233.88 19.1746 233.88C19.2786 233.88 19.3906 233.888 19.5106 233.904C19.6386 233.92 19.7466 233.952 19.8346 234L19.6666 234.876C19.5786 234.844 19.4826 234.82 19.3786 234.804C19.2746 234.788 19.1266 234.78 18.9346 234.78C18.6866 234.78 18.4346 234.852 18.1786 234.996C17.9306 235.14 17.7226 235.36 17.5546 235.656C17.3866 235.944 17.3026 236.312 17.3026 236.76V240H16.3426ZM21.721 232.848C21.505 232.848 21.329 232.784 21.193 232.656C21.065 232.52 21.001 232.344 21.001 232.128C21.001 231.912 21.065 231.74 21.193 231.612C21.329 231.476 21.505 231.408 21.721 231.408C21.937 231.408 22.109 231.476 22.237 231.612C22.373 231.74 22.441 231.912 22.441 232.128C22.441 232.344 22.373 232.52 22.237 232.656C22.109 232.784 21.937 232.848 21.721 232.848ZM22.201 234V240H21.241V234H22.201ZM28.0285 234V234.828H25.8445V238.344C25.8445 238.64 25.9285 238.86 26.0965 239.004C26.2645 239.148 26.4805 239.22 26.7445 239.22C26.9765 239.22 27.1765 239.18 27.3445 239.1C27.5125 239.02 27.6645 238.912 27.8005 238.776L28.1365 239.58C27.9525 239.748 27.7325 239.88 27.4765 239.976C27.2285 240.072 26.9405 240.12 26.6125 240.12C26.3085 240.12 26.0245 240.068 25.7605 239.964C25.4965 239.852 25.2845 239.68 25.1245 239.448C24.9725 239.208 24.8925 238.896 24.8845 238.512V234.828H23.6845V234H24.8845V232.56L25.8445 232.296V234H28.0285ZM31.9638 240.12C31.3958 240.12 30.8878 239.996 30.4398 239.748C29.9998 239.5 29.6558 239.144 29.4078 238.68C29.1598 238.208 29.0358 237.648 29.0358 237C29.0358 236.352 29.1598 235.796 29.4078 235.332C29.6558 234.86 29.9958 234.5 30.4278 234.252C30.8598 234.004 31.3518 233.88 31.9038 233.88C32.4638 233.88 32.9398 234 33.3318 234.24C33.7318 234.48 34.0358 234.808 34.2438 235.224C34.4518 235.632 34.5558 236.092 34.5558 236.604C34.5558 236.74 34.5518 236.864 34.5438 236.976C34.5358 237.088 34.5238 237.188 34.5078 237.276H29.9838C30.0318 237.908 30.2278 238.4 30.5718 238.752C30.9158 239.104 31.3718 239.28 31.9398 239.28C32.3798 239.28 32.7358 239.196 33.0078 239.028C33.2878 238.86 33.5118 238.632 33.6798 238.344L34.4358 238.788C34.2118 239.196 33.8878 239.52 33.4638 239.76C33.0478 240 32.5478 240.12 31.9638 240.12ZM31.8798 234.72C31.3758 234.72 30.9598 234.872 30.6318 235.176C30.3118 235.472 30.1078 235.888 30.0198 236.424H33.5958C33.5718 235.88 33.4038 235.46 33.0918 235.164C32.7798 234.868 32.3758 234.72 31.8798 234.72ZM43.9755 236.124C43.9755 235.676 43.8555 235.332 43.6155 235.092C43.3755 234.844 43.0355 234.72 42.5955 234.72C42.1795 234.72 41.8275 234.812 41.5395 234.996C41.2515 235.172 41.0395 235.46 40.9035 235.86L40.1235 235.38C40.2835 234.932 40.5795 234.572 41.0115 234.3C41.4435 234.02 41.9795 233.88 42.6195 233.88C43.0515 233.88 43.4435 233.956 43.7955 234.108C44.1475 234.252 44.4235 234.476 44.6235 234.78C44.8315 235.076 44.9355 235.46 44.9355 235.932V238.836C44.9355 239.124 45.0875 239.268 45.3915 239.268C45.5435 239.268 45.6915 239.248 45.8355 239.208L45.7875 239.964C45.6275 240.044 45.4195 240.084 45.1635 240.084C44.8675 240.084 44.6115 240.012 44.3955 239.868C44.1875 239.724 44.0515 239.504 43.9875 239.208C43.7795 239.52 43.4955 239.752 43.1355 239.904C42.7755 240.048 42.4195 240.12 42.0675 240.12C41.7155 240.12 41.3875 240.06 41.0835 239.94C40.7795 239.82 40.5355 239.64 40.3515 239.4C40.1755 239.152 40.0875 238.848 40.0875 238.488C40.0875 238.04 40.2355 237.672 40.5315 237.384C40.8355 237.088 41.2555 236.888 41.7915 236.784L43.9755 236.352V236.124ZM41.0715 238.44C41.0715 238.688 41.1675 238.892 41.3595 239.052C41.5595 239.204 41.8395 239.28 42.1995 239.28C42.5115 239.28 42.7995 239.228 43.0635 239.124C43.3355 239.012 43.5555 238.848 43.7235 238.632C43.8915 238.408 43.9755 238.124 43.9755 237.78V237.144L42.2355 237.504C41.8435 237.584 41.5515 237.696 41.3595 237.84C41.1675 237.984 41.0715 238.184 41.0715 238.44ZM47.2683 240V234H48.1083L48.1683 234.936C48.3763 234.56 48.6603 234.292 49.0203 234.132C49.3803 233.964 49.7683 233.88 50.1843 233.88C50.6163 233.88 51.0083 233.964 51.3603 234.132C51.7123 234.292 51.9923 234.54 52.2003 234.876C52.4163 235.212 52.5243 235.64 52.5243 236.16V240H51.5643V236.496C51.5643 235.832 51.4203 235.372 51.1323 235.116C50.8523 234.852 50.5043 234.72 50.0883 234.72C49.8003 234.72 49.5123 234.788 49.2243 234.924C48.9363 235.06 48.6963 235.28 48.5043 235.584C48.3203 235.888 48.2283 236.296 48.2283 236.808V240H47.2683ZM61.2959 240.12C60.7279 240.12 60.2199 239.996 59.7719 239.748C59.3319 239.5 58.9879 239.144 58.7399 238.68C58.4919 238.208 58.3679 237.648 58.3679 237C58.3679 236.352 58.4919 235.796 58.7399 235.332C58.9879 234.86 59.3279 234.5 59.7599 234.252C60.1919 234.004 60.6839 233.88 61.2359 233.88C61.7959 233.88 62.2719 234 62.6639 234.24C63.0639 234.48 63.3679 234.808 63.5759 235.224C63.7839 235.632 63.8879 236.092 63.8879 236.604C63.8879 236.74 63.8839 236.864 63.8759 236.976C63.8679 237.088 63.8559 237.188 63.8399 237.276H59.3159C59.3639 237.908 59.5599 238.4 59.9039 238.752C60.2479 239.104 60.7039 239.28 61.2719 239.28C61.7119 239.28 62.0679 239.196 62.3399 239.028C62.6199 238.86 62.8439 238.632 63.0119 238.344L63.7679 238.788C63.5439 239.196 63.2199 239.52 62.7959 239.76C62.3799 240 61.8799 240.12 61.2959 240.12ZM61.2119 234.72C60.7079 234.72 60.2919 234.872 59.9639 235.176C59.6439 235.472 59.4399 235.888 59.3519 236.424H62.9279C62.9039 235.88 62.7359 235.46 62.4239 235.164C62.1119 234.868 61.7079 234.72 61.2119 234.72ZM65.7137 240V234H66.5537L66.6137 234.936C66.8217 234.56 67.1057 234.292 67.4657 234.132C67.8257 233.964 68.2137 233.88 68.6297 233.88C69.0617 233.88 69.4537 233.964 69.8057 234.132C70.1577 234.292 70.4377 234.54 70.6457 234.876C70.8617 235.212 70.9697 235.64 70.9697 236.16V240H70.0097V236.496C70.0097 235.832 69.8657 235.372 69.5777 235.116C69.2977 234.852 68.9497 234.72 68.5337 234.72C68.2457 234.72 67.9577 234.788 67.6697 234.924C67.3817 235.06 67.1417 235.28 66.9497 235.584C66.7657 235.888 66.6737 236.296 66.6737 236.808V240H65.7137ZM76.6613 234V234.828H74.4773V238.344C74.4773 238.64 74.5613 238.86 74.7293 239.004C74.8973 239.148 75.1133 239.22 75.3773 239.22C75.6093 239.22 75.8093 239.18 75.9773 239.1C76.1453 239.02 76.2973 238.912 76.4333 238.776L76.7693 239.58C76.5853 239.748 76.3653 239.88 76.1093 239.976C75.8613 240.072 75.5733 240.12 75.2453 240.12C74.9413 240.12 74.6573 240.068 74.3933 239.964C74.1293 239.852 73.9173 239.68 73.7573 239.448C73.6053 239.208 73.5253 238.896 73.5173 238.512V234.828H72.3173V234H73.5173V232.56L74.4773 232.296V234H76.6613ZM78.5687 232.848C78.3527 232.848 78.1767 232.784 78.0407 232.656C77.9127 232.52 77.8487 232.344 77.8487 232.128C77.8487 231.912 77.9127 231.74 78.0407 231.612C78.1767 231.476 78.3527 231.408 78.5687 231.408C78.7847 231.408 78.9567 231.476 79.0847 231.612C79.2207 231.74 79.2887 231.912 79.2887 232.128C79.2887 232.344 79.2207 232.52 79.0847 232.656C78.9567 232.784 78.7847 232.848 78.5687 232.848ZM79.0487 234V240H78.0887V234H79.0487ZM83.7602 233.88C84.3762 233.88 84.8882 234.024 85.2962 234.312C85.7042 234.592 86.0202 234.98 86.2442 235.476L85.3322 235.908C85.2042 235.524 85.0082 235.232 84.7442 235.032C84.4882 234.824 84.1522 234.72 83.7362 234.72C83.1362 234.72 82.6642 234.924 82.3202 235.332C81.9842 235.732 81.8162 236.288 81.8162 237C81.8162 237.712 81.9842 238.272 82.3202 238.68C82.6642 239.08 83.1362 239.28 83.7362 239.28C84.2082 239.28 84.5842 239.172 84.8642 238.956C85.1442 238.74 85.3282 238.436 85.4162 238.044L86.3042 238.356C86.1042 238.908 85.7882 239.34 85.3562 239.652C84.9322 239.964 84.4002 240.12 83.7602 240.12C83.2002 240.12 82.7002 239.996 82.2602 239.748C81.8202 239.5 81.4762 239.144 81.2282 238.68C80.9802 238.208 80.8562 237.648 80.8562 237C80.8562 236.352 80.9802 235.796 81.2282 235.332C81.4762 234.86 81.8202 234.5 82.2602 234.252C82.7002 234.004 83.2002 233.88 83.7602 233.88ZM88.471 232.848C88.255 232.848 88.079 232.784 87.943 232.656C87.815 232.52 87.751 232.344 87.751 232.128C87.751 231.912 87.815 231.74 87.943 231.612C88.079 231.476 88.255 231.408 88.471 231.408C88.687 231.408 88.859 231.476 88.987 231.612C89.123 231.74 89.191 231.912 89.191 232.128C89.191 232.344 89.123 232.52 88.987 232.656C88.859 232.784 88.687 232.848 88.471 232.848ZM88.951 234V240H87.991V234H88.951ZM91.1785 240V234H92.0185L92.0785 234.936C92.2865 234.56 92.5705 234.292 92.9305 234.132C93.2905 233.964 93.6785 233.88 94.0945 233.88C94.5265 233.88 94.9185 233.964 95.2705 234.132C95.6225 234.292 95.9025 234.54 96.1105 234.876C96.3265 235.212 96.4345 235.64 96.4345 236.16V240H95.4745V236.496C95.4745 235.832 95.3305 235.372 95.0425 235.116C94.7625 234.852 94.4145 234.72 93.9985 234.72C93.7105 234.72 93.4225 234.788 93.1345 234.924C92.8465 235.06 92.6065 235.28 92.4145 235.584C92.2305 235.888 92.1385 236.296 92.1385 236.808V240H91.1785ZM101.836 239.232C102.404 239.232 102.848 239.364 103.168 239.628C103.488 239.884 103.648 240.228 103.648 240.66C103.648 241.052 103.516 241.392 103.252 241.68C102.996 241.968 102.648 242.188 102.208 242.34C101.776 242.5 101.288 242.58 100.744 242.58C99.8002 242.58 99.0922 242.42 98.6202 242.1C98.1562 241.78 97.9242 241.396 97.9242 240.948C97.9242 240.676 98.0002 240.428 98.1522 240.204C98.3042 239.98 98.5562 239.82 98.9082 239.724C98.7162 239.636 98.5602 239.516 98.4402 239.364C98.3202 239.204 98.2602 238.992 98.2602 238.728C98.2602 238.48 98.3322 238.256 98.4762 238.056C98.6202 237.848 98.8362 237.688 99.1242 237.576C98.8202 237.4 98.5882 237.168 98.4282 236.88C98.2682 236.592 98.1882 236.268 98.1882 235.908C98.1882 235.508 98.2922 235.156 98.5002 234.852C98.7162 234.548 99.0082 234.312 99.3762 234.144C99.7442 233.968 100.168 233.88 100.648 233.88C101.152 233.88 101.604 233.98 102.004 234.18C102.06 233.78 102.236 233.468 102.532 233.244C102.836 233.012 103.192 232.896 103.6 232.896H103.66L103.876 233.748H103.792C103.424 233.748 103.136 233.816 102.928 233.952C102.72 234.088 102.604 234.3 102.58 234.588C102.932 234.956 103.108 235.396 103.108 235.908C103.108 236.3 103.004 236.652 102.796 236.964C102.588 237.268 102.296 237.508 101.92 237.684C101.552 237.852 101.128 237.936 100.648 237.936C100.352 237.936 100.076 237.908 99.8202 237.852C99.5802 237.924 99.4082 238.024 99.3042 238.152C99.2002 238.28 99.1482 238.42 99.1482 238.572C99.1482 239.012 99.4602 239.232 100.084 239.232H101.836ZM100.648 234.66C100.232 234.66 99.8842 234.776 99.6042 235.008C99.3242 235.232 99.1842 235.532 99.1842 235.908C99.1842 236.276 99.3242 236.576 99.6042 236.808C99.8842 237.04 100.232 237.156 100.648 237.156C101.064 237.156 101.412 237.04 101.692 236.808C101.972 236.576 102.112 236.276 102.112 235.908C102.112 235.532 101.972 235.232 101.692 235.008C101.412 234.776 101.064 234.66 100.648 234.66ZM100.732 241.776C101.428 241.776 101.94 241.672 102.268 241.464C102.596 241.264 102.76 241.032 102.76 240.768C102.76 240.552 102.672 240.38 102.496 240.252C102.328 240.124 102.02 240.06 101.572 240.06H99.7242C99.4682 240.06 99.2522 240.124 99.0762 240.252C98.9002 240.388 98.8122 240.572 98.8122 240.804C98.8122 241.1 98.9802 241.336 99.3162 241.512C99.6602 241.688 100.132 241.776 100.732 241.776ZM112.752 234H113.76L111.264 240H110.304L107.808 234H108.9L110.796 239.028L112.752 234ZM115.494 232.848C115.278 232.848 115.102 232.784 114.966 232.656C114.838 232.52 114.774 232.344 114.774 232.128C114.774 231.912 114.838 231.74 114.966 231.612C115.102 231.476 115.278 231.408 115.494 231.408C115.71 231.408 115.882 231.476 116.01 231.612C116.146 231.74 116.214 231.912 116.214 232.128C116.214 232.344 116.146 232.52 116.01 232.656C115.882 232.784 115.71 232.848 115.494 232.848ZM115.974 234V240H115.014V234H115.974ZM120.542 240.12C120.046 240.12 119.59 239.996 119.174 239.748C118.758 239.5 118.426 239.144 118.178 238.68C117.93 238.208 117.806 237.648 117.806 237C117.806 236.336 117.938 235.772 118.202 235.308C118.466 234.844 118.814 234.492 119.246 234.252C119.678 234.004 120.142 233.88 120.638 233.88C121.07 233.88 121.454 233.98 121.79 234.18C122.126 234.372 122.374 234.636 122.534 234.972V231.24H123.494V240H122.654L122.594 238.872C122.426 239.28 122.154 239.592 121.778 239.808C121.402 240.016 120.99 240.12 120.542 240.12ZM120.638 239.28C121.206 239.28 121.662 239.068 122.006 238.644C122.358 238.22 122.534 237.644 122.534 236.916C122.534 236.228 122.362 235.692 122.018 235.308C121.674 234.916 121.23 234.72 120.686 234.72C120.078 234.72 119.606 234.928 119.27 235.344C118.934 235.76 118.766 236.312 118.766 237C118.766 237.688 118.93 238.24 119.258 238.656C119.586 239.072 120.046 239.28 120.638 239.28ZM128.233 240.12C127.665 240.12 127.157 239.996 126.709 239.748C126.269 239.5 125.925 239.144 125.677 238.68C125.429 238.208 125.305 237.648 125.305 237C125.305 236.352 125.429 235.796 125.677 235.332C125.925 234.86 126.265 234.5 126.697 234.252C127.129 234.004 127.621 233.88 128.173 233.88C128.733 233.88 129.209 234 129.601 234.24C130.001 234.48 130.305 234.808 130.513 235.224C130.721 235.632 130.825 236.092 130.825 236.604C130.825 236.74 130.821 236.864 130.813 236.976C130.805 237.088 130.793 237.188 130.777 237.276H126.253C126.301 237.908 126.497 238.4 126.841 238.752C127.185 239.104 127.641 239.28 128.209 239.28C128.649 239.28 129.005 239.196 129.277 239.028C129.557 238.86 129.781 238.632 129.949 238.344L130.705 238.788C130.481 239.196 130.157 239.52 129.733 239.76C129.317 240 128.817 240.12 128.233 240.12ZM128.149 234.72C127.645 234.72 127.229 234.872 126.901 235.176C126.581 235.472 126.377 235.888 126.289 236.424H129.865C129.841 235.88 129.673 235.46 129.361 235.164C129.049 234.868 128.645 234.72 128.149 234.72ZM135.135 233.88C135.703 233.88 136.203 234.004 136.635 234.252C137.075 234.5 137.419 234.86 137.667 235.332C137.915 235.796 138.039 236.352 138.039 237C138.039 237.648 137.915 238.208 137.667 238.68C137.419 239.144 137.075 239.5 136.635 239.748C136.203 239.996 135.703 240.12 135.135 240.12C134.575 240.12 134.075 239.996 133.635 239.748C133.195 239.5 132.851 239.144 132.603 238.68C132.355 238.208 132.231 237.648 132.231 237C132.231 236.352 132.355 235.796 132.603 235.332C132.851 234.86 133.195 234.5 133.635 234.252C134.075 234.004 134.575 233.88 135.135 233.88ZM135.135 234.708C134.527 234.708 134.051 234.912 133.707 235.32C133.363 235.728 133.191 236.288 133.191 237C133.191 237.712 133.363 238.272 133.707 238.68C134.051 239.088 134.527 239.292 135.135 239.292C135.743 239.292 136.219 239.088 136.563 238.68C136.907 238.272 137.079 237.712 137.079 237C137.079 236.288 136.907 235.728 136.563 235.32C136.219 234.912 135.743 234.708 135.135 234.708ZM147.302 234V234.828H145.118V238.344C145.118 238.64 145.202 238.86 145.37 239.004C145.538 239.148 145.754 239.22 146.018 239.22C146.25 239.22 146.45 239.18 146.618 239.1C146.786 239.02 146.938 238.912 147.074 238.776L147.41 239.58C147.226 239.748 147.006 239.88 146.75 239.976C146.502 240.072 146.214 240.12 145.886 240.12C145.582 240.12 145.298 240.068 145.034 239.964C144.77 239.852 144.558 239.68 144.398 239.448C144.246 239.208 144.166 238.896 144.158 238.512V234.828H142.958V234H144.158V232.56L145.118 232.296V234H147.302ZM149.209 232.848C148.993 232.848 148.817 232.784 148.681 232.656C148.553 232.52 148.489 232.344 148.489 232.128C148.489 231.912 148.553 231.74 148.681 231.612C148.817 231.476 148.993 231.408 149.209 231.408C149.425 231.408 149.597 231.476 149.725 231.612C149.861 231.74 149.929 231.912 149.929 232.128C149.929 232.344 149.861 232.52 149.725 232.656C149.597 232.784 149.425 232.848 149.209 232.848ZM149.689 234V240H148.729V234H149.689ZM155.517 234V234.828H153.333V238.344C153.333 238.64 153.417 238.86 153.585 239.004C153.753 239.148 153.969 239.22 154.233 239.22C154.465 239.22 154.665 239.18 154.833 239.1C155.001 239.02 155.153 238.912 155.289 238.776L155.625 239.58C155.441 239.748 155.221 239.88 154.965 239.976C154.717 240.072 154.429 240.12 154.101 240.12C153.797 240.12 153.513 240.068 153.249 239.964C152.985 239.852 152.773 239.68 152.613 239.448C152.461 239.208 152.381 238.896 152.373 238.512V234.828H151.173V234H152.373V232.56L153.333 232.296V234H155.517ZM157.856 231.24V238.476C157.856 238.78 157.912 238.992 158.024 239.112C158.136 239.224 158.316 239.28 158.564 239.28C158.724 239.28 158.856 239.268 158.96 239.244C159.064 239.22 159.204 239.176 159.38 239.112L159.224 239.952C158.96 240.064 158.664 240.12 158.336 240.12C157.376 240.12 156.896 239.584 156.896 238.512V231.24H157.856ZM163.12 240.12C162.552 240.12 162.044 239.996 161.596 239.748C161.156 239.5 160.812 239.144 160.564 238.68C160.316 238.208 160.192 237.648 160.192 237C160.192 236.352 160.316 235.796 160.564 235.332C160.812 234.86 161.152 234.5 161.584 234.252C162.016 234.004 162.508 233.88 163.06 233.88C163.62 233.88 164.096 234 164.488 234.24C164.888 234.48 165.192 234.808 165.4 235.224C165.608 235.632 165.712 236.092 165.712 236.604C165.712 236.74 165.708 236.864 165.7 236.976C165.692 237.088 165.68 237.188 165.664 237.276H161.14C161.188 237.908 161.384 238.4 161.728 238.752C162.072 239.104 162.528 239.28 163.096 239.28C163.536 239.28 163.892 239.196 164.164 239.028C164.444 238.86 164.668 238.632 164.836 238.344L165.592 238.788C165.368 239.196 165.044 239.52 164.62 239.76C164.204 240 163.704 240.12 163.12 240.12ZM163.036 234.72C162.532 234.72 162.116 234.872 161.788 235.176C161.468 235.472 161.264 235.888 161.176 236.424H164.752C164.728 235.88 164.56 235.46 164.248 235.164C163.936 234.868 163.532 234.72 163.036 234.72ZM7.3 246.988L7.852 247.54C7.06 248.268 6.504 249.048 6.184 249.88C5.872 250.712 5.716 251.628 5.716 252.628C5.716 253.628 5.872 254.544 6.184 255.376C6.504 256.208 7.06 256.988 7.852 257.716L7.3 258.268C5.588 256.788 4.732 254.908 4.732 252.628C4.732 250.348 5.588 248.468 7.3 246.988ZM16.995 248.08V256H16.083V251.02L16.191 248.932H16.179L13.575 256H12.759L10.155 248.932H10.143L10.251 251.02V256H9.33897V248.08H10.815L12.555 252.892L13.155 254.872H13.179L13.791 252.904L15.519 248.08H16.995ZM22.8348 252.124C22.8348 251.676 22.7148 251.332 22.4748 251.092C22.2348 250.844 21.8948 250.72 21.4548 250.72C21.0388 250.72 20.6868 250.812 20.3988 250.996C20.1108 251.172 19.8988 251.46 19.7628 251.86L18.9828 251.38C19.1428 250.932 19.4388 250.572 19.8708 250.3C20.3028 250.02 20.8388 249.88 21.4788 249.88C21.9108 249.88 22.3028 249.956 22.6548 250.108C23.0068 250.252 23.2828 250.476 23.4828 250.78C23.6908 251.076 23.7948 251.46 23.7948 251.932V254.836C23.7948 255.124 23.9468 255.268 24.2508 255.268C24.4028 255.268 24.5508 255.248 24.6948 255.208L24.6468 255.964C24.4868 256.044 24.2788 256.084 24.0228 256.084C23.7268 256.084 23.4708 256.012 23.2548 255.868C23.0468 255.724 22.9108 255.504 22.8468 255.208C22.6388 255.52 22.3548 255.752 21.9948 255.904C21.6348 256.048 21.2788 256.12 20.9268 256.12C20.5748 256.12 20.2468 256.06 19.9428 255.94C19.6388 255.82 19.3948 255.64 19.2108 255.4C19.0348 255.152 18.9468 254.848 18.9468 254.488C18.9468 254.04 19.0948 253.672 19.3908 253.384C19.6948 253.088 20.1148 252.888 20.6508 252.784L22.8348 252.352V252.124ZM19.9308 254.44C19.9308 254.688 20.0268 254.892 20.2188 255.052C20.4188 255.204 20.6988 255.28 21.0588 255.28C21.3708 255.28 21.6588 255.228 21.9228 255.124C22.1948 255.012 22.4148 254.848 22.5828 254.632C22.7508 254.408 22.8348 254.124 22.8348 253.78V253.144L21.0948 253.504C20.7028 253.584 20.4108 253.696 20.2188 253.84C20.0268 253.984 19.9308 254.184 19.9308 254.44ZM26.7037 250L28.2877 252.22L29.8477 250H30.9757L28.8037 252.94L31.0117 256H29.8357L28.1797 253.684L26.4757 256H25.3597L27.6637 252.976L25.5037 250H26.7037ZM36.1536 256V255.22C36.9456 254.636 37.6056 254.124 38.1336 253.684C38.6696 253.244 39.0976 252.844 39.4176 252.484C39.7376 252.124 39.9656 251.784 40.1016 251.464C40.2376 251.136 40.3056 250.796 40.3056 250.444C40.3056 249.972 40.1536 249.592 39.8496 249.304C39.5536 249.008 39.1456 248.86 38.6256 248.86C38.0816 248.86 37.6456 249.04 37.3176 249.4C36.9896 249.752 36.7976 250.224 36.7416 250.816L35.9016 250.312C36.0056 249.624 36.2896 249.06 36.7536 248.62C37.2256 248.18 37.8616 247.96 38.6616 247.96C39.2056 247.96 39.6736 248.068 40.0656 248.284C40.4656 248.492 40.7736 248.784 40.9896 249.16C41.2056 249.528 41.3136 249.956 41.3136 250.444C41.3136 250.94 41.1936 251.428 40.9536 251.908C40.7136 252.38 40.3176 252.876 39.7656 253.396C39.2136 253.916 38.4656 254.492 37.5216 255.124V255.136C37.6096 255.128 37.7296 255.124 37.8816 255.124C38.0416 255.116 38.1976 255.112 38.3496 255.112C38.5096 255.104 38.6296 255.1 38.7096 255.1H41.4816V256H36.1536ZM48.3796 247.24V254.476C48.3796 254.78 48.4356 254.992 48.5476 255.112C48.6596 255.224 48.8396 255.28 49.0876 255.28C49.2476 255.28 49.3796 255.268 49.4836 255.244C49.5876 255.22 49.7276 255.176 49.9036 255.112L49.7476 255.952C49.4836 256.064 49.1876 256.12 48.8596 256.12C47.8996 256.12 47.4196 255.584 47.4196 254.512V247.24H48.3796ZM51.6155 248.848C51.3995 248.848 51.2235 248.784 51.0875 248.656C50.9595 248.52 50.8955 248.344 50.8955 248.128C50.8955 247.912 50.9595 247.74 51.0875 247.612C51.2235 247.476 51.3995 247.408 51.6155 247.408C51.8315 247.408 52.0035 247.476 52.1315 247.612C52.2675 247.74 52.3355 247.912 52.3355 248.128C52.3355 248.344 52.2675 248.52 52.1315 248.656C52.0035 248.784 51.8315 248.848 51.6155 248.848ZM52.0955 250V256H51.1355V250H52.0955ZM54.323 256V250H55.163L55.223 250.936C55.431 250.56 55.715 250.292 56.075 250.132C56.435 249.964 56.823 249.88 57.239 249.88C57.671 249.88 58.063 249.964 58.415 250.132C58.767 250.292 59.047 250.54 59.255 250.876C59.471 251.212 59.579 251.64 59.579 252.16V256H58.619V252.496C58.619 251.832 58.475 251.372 58.187 251.116C57.907 250.852 57.559 250.72 57.143 250.72C56.855 250.72 56.567 250.788 56.279 250.924C55.991 251.06 55.751 251.28 55.559 251.584C55.375 251.888 55.283 252.296 55.283 252.808V256H54.323ZM64.2607 256.12C63.6927 256.12 63.1847 255.996 62.7367 255.748C62.2967 255.5 61.9527 255.144 61.7047 254.68C61.4567 254.208 61.3327 253.648 61.3327 253C61.3327 252.352 61.4567 251.796 61.7047 251.332C61.9527 250.86 62.2927 250.5 62.7247 250.252C63.1567 250.004 63.6487 249.88 64.2007 249.88C64.7607 249.88 65.2367 250 65.6287 250.24C66.0287 250.48 66.3327 250.808 66.5407 251.224C66.7487 251.632 66.8527 252.092 66.8527 252.604C66.8527 252.74 66.8487 252.864 66.8407 252.976C66.8327 253.088 66.8207 253.188 66.8047 253.276H62.2807C62.3287 253.908 62.5247 254.4 62.8687 254.752C63.2127 255.104 63.6687 255.28 64.2367 255.28C64.6767 255.28 65.0327 255.196 65.3047 255.028C65.5847 254.86 65.8087 254.632 65.9767 254.344L66.7327 254.788C66.5087 255.196 66.1847 255.52 65.7607 255.76C65.3447 256 64.8447 256.12 64.2607 256.12ZM64.1767 250.72C63.6727 250.72 63.2567 250.872 62.9287 251.176C62.6087 251.472 62.4047 251.888 62.3167 252.424H65.8927C65.8687 251.88 65.7007 251.46 65.3887 251.164C65.0767 250.868 64.6727 250.72 64.1767 250.72ZM70.8385 256.12C70.2545 256.12 69.7145 255.996 69.2185 255.748C68.7305 255.5 68.3545 255.148 68.0905 254.692L68.9065 254.104C69.0825 254.472 69.3385 254.76 69.6745 254.968C70.0185 255.176 70.4305 255.28 70.9105 255.28C71.3345 255.28 71.6665 255.2 71.9065 255.04C72.1465 254.872 72.2665 254.656 72.2665 254.392C72.2665 254.224 72.2105 254.072 72.0985 253.936C71.9945 253.792 71.7905 253.688 71.4865 253.624L70.0465 253.324C69.4625 253.204 69.0425 253.004 68.7865 252.724C68.5385 252.444 68.4145 252.096 68.4145 251.68C68.4145 251.352 68.5065 251.052 68.6905 250.78C68.8825 250.508 69.1505 250.292 69.4945 250.132C69.8465 249.964 70.2585 249.88 70.7305 249.88C71.3225 249.88 71.8225 249.996 72.2305 250.228C72.6385 250.46 72.9425 250.788 73.1425 251.212L72.3385 251.74C72.2025 251.388 71.9825 251.132 71.6785 250.972C71.3745 250.804 71.0585 250.72 70.7305 250.72C70.2985 250.72 69.9625 250.808 69.7225 250.984C69.4825 251.16 69.3625 251.38 69.3625 251.644C69.3625 251.82 69.4225 251.984 69.5425 252.136C69.6625 252.28 69.8865 252.384 70.2145 252.448L71.7145 252.76C72.2745 252.872 72.6665 253.056 72.8905 253.312C73.1145 253.568 73.2265 253.88 73.2265 254.248C73.2265 254.816 73.0065 255.272 72.5665 255.616C72.1265 255.952 71.5505 256.12 70.8385 256.12ZM74.275 258.268L73.723 257.716C74.515 256.988 75.067 256.208 75.379 255.376C75.699 254.544 75.859 253.628 75.859 252.628C75.859 251.628 75.699 250.712 75.379 249.88C75.067 249.048 74.515 248.268 73.723 247.54L74.275 246.988C75.987 248.468 76.843 250.348 76.843 252.628C76.843 254.908 75.987 256.788 74.275 258.268Z" fill="black"/>
<circle cx="20" cy="284" r="16" fill="#C4C4C4"/>
<path d="M40.2 287L42.69 280.4H43.97L46.46 287H45.33L44.71 285.27H41.93L41.3 287H40.2ZM43.02 282.26L42.24 284.4H44.39L43.63 282.28L43.33 281.33H43.3L43.02 282.26ZM49.192 287.1C48.8654 287.1 48.562 287.04 48.282 286.92C48.0087 286.8 47.7887 286.607 47.622 286.34C47.4554 286.073 47.372 285.727 47.372 285.3V282H48.442V285.03C48.442 285.483 48.5354 285.797 48.722 285.97C48.9154 286.137 49.1887 286.22 49.542 286.22C49.7687 286.22 49.982 286.17 50.182 286.07C50.382 285.963 50.542 285.8 50.662 285.58C50.7887 285.353 50.852 285.063 50.852 284.71V282H51.922V287H50.982L50.932 286.19C50.7587 286.503 50.5254 286.733 50.232 286.88C49.9387 287.027 49.592 287.1 49.192 287.1ZM56.7737 282V282.84H55.0537V285.5C55.0537 285.74 55.1203 285.92 55.2537 286.04C55.387 286.153 55.5603 286.21 55.7737 286.21C55.9603 286.21 56.117 286.183 56.2437 286.13C56.377 286.07 56.5003 285.99 56.6137 285.89L56.8537 286.67C56.7003 286.803 56.5103 286.91 56.2837 286.99C56.0637 287.063 55.817 287.1 55.5437 287.1C55.1037 287.1 54.7337 286.993 54.4337 286.78C54.1337 286.56 53.9837 286.193 53.9837 285.68V282.84H53.0237V282H53.9837V280.83L55.0537 280.53V282H56.7737ZM57.871 287V279.75H58.941V282.8C59.1077 282.487 59.331 282.26 59.611 282.12C59.8977 281.973 60.2143 281.9 60.561 281.9C60.9143 281.9 61.231 281.97 61.511 282.11C61.7977 282.243 62.0243 282.45 62.191 282.73C62.3577 283.003 62.441 283.347 62.441 283.76V287H61.371V284.1C61.371 283.6 61.2677 283.257 61.061 283.07C60.861 282.877 60.6077 282.78 60.301 282.78C60.081 282.78 59.8677 282.833 59.661 282.94C59.4543 283.04 59.281 283.207 59.141 283.44C59.0077 283.667 58.941 283.973 58.941 284.36V287H57.871ZM66.2324 281.9C66.7191 281.9 67.1491 282.003 67.5224 282.21C67.8958 282.417 68.1858 282.717 68.3924 283.11C68.6058 283.497 68.7124 283.96 68.7124 284.5C68.7124 285.04 68.6058 285.507 68.3924 285.9C68.1858 286.287 67.8958 286.583 67.5224 286.79C67.1491 286.997 66.7191 287.1 66.2324 287.1C65.7458 287.1 65.3158 286.997 64.9424 286.79C64.5691 286.583 64.2758 286.287 64.0624 285.9C63.8491 285.507 63.7424 285.04 63.7424 284.5C63.7424 283.96 63.8491 283.497 64.0624 283.11C64.2758 282.717 64.5691 282.417 64.9424 282.21C65.3158 282.003 65.7458 281.9 66.2324 281.9ZM66.2324 282.74C65.7924 282.74 65.4458 282.893 65.1924 283.2C64.9391 283.5 64.8124 283.933 64.8124 284.5C64.8124 285.067 64.9391 285.503 65.1924 285.81C65.4458 286.11 65.7924 286.26 66.2324 286.26C66.6724 286.26 67.0158 286.11 67.2624 285.81C67.5158 285.503 67.6424 285.067 67.6424 284.5C67.6424 283.933 67.5158 283.5 67.2624 283.2C67.0158 282.893 66.6724 282.74 66.2324 282.74ZM70.0585 287V282H70.9685L71.0685 282.9C71.3418 282.233 71.8652 281.9 72.6385 281.9C72.7385 281.9 72.8385 281.91 72.9385 281.93C73.0385 281.943 73.1218 281.967 73.1885 282L73.0385 282.94C72.9652 282.913 72.8818 282.893 72.7885 282.88C72.7018 282.86 72.5818 282.85 72.4285 282.85C72.2152 282.85 72.0085 282.907 71.8085 283.02C71.6152 283.127 71.4518 283.293 71.3185 283.52C71.1918 283.74 71.1285 284.017 71.1285 284.35V287H70.0585ZM77.2363 287V282H78.1863L78.2363 282.86C78.4029 282.527 78.6329 282.283 78.9263 282.13C79.2263 281.977 79.5596 281.9 79.9263 281.9C80.2796 281.9 80.5963 281.97 80.8763 282.11C81.1629 282.243 81.3896 282.45 81.5563 282.73C81.7229 283.003 81.8063 283.347 81.8063 283.76V287H80.7363V284.09C80.7363 283.597 80.6329 283.257 80.4263 283.07C80.2263 282.877 79.9729 282.78 79.6663 282.78C79.4463 282.78 79.2329 282.83 79.0263 282.93C78.8196 283.03 78.6463 283.197 78.5063 283.43C78.3729 283.657 78.3063 283.96 78.3063 284.34V287H77.2363ZM86.3177 283.79C86.3177 283.457 86.2243 283.2 86.0377 283.02C85.8577 282.833 85.6077 282.74 85.2877 282.74C84.9877 282.74 84.7277 282.81 84.5077 282.95C84.2943 283.09 84.141 283.317 84.0477 283.63L83.1477 283.25C83.2743 282.843 83.521 282.517 83.8877 282.27C84.261 282.023 84.741 281.9 85.3277 281.9C85.721 281.9 86.071 281.967 86.3777 282.1C86.691 282.227 86.9343 282.423 87.1077 282.69C87.2877 282.95 87.3777 283.28 87.3777 283.68V285.91C87.3777 286.157 87.501 286.28 87.7477 286.28C87.8677 286.28 87.9843 286.263 88.0977 286.23L88.0377 286.97C87.8843 287.043 87.691 287.08 87.4577 287.08C87.191 287.08 86.961 287.02 86.7677 286.9C86.5743 286.78 86.4443 286.6 86.3777 286.36C86.2177 286.607 85.9877 286.793 85.6877 286.92C85.3877 287.04 85.0877 287.1 84.7877 287.1C84.3143 287.1 83.921 286.987 83.6077 286.76C83.2943 286.533 83.1377 286.193 83.1377 285.74C83.1377 285.373 83.2577 285.07 83.4977 284.83C83.7443 284.59 84.091 284.423 84.5377 284.33L86.3177 283.98V283.79ZM84.2177 285.66C84.2177 285.847 84.2877 285.997 84.4277 286.11C84.5743 286.217 84.7677 286.27 85.0077 286.27C85.2343 286.27 85.4477 286.233 85.6477 286.16C85.8477 286.087 86.0077 285.967 86.1277 285.8C86.2543 285.633 86.3177 285.417 86.3177 285.15V284.73L85.0577 284.99C84.771 285.043 84.5577 285.12 84.4177 285.22C84.2843 285.32 84.2177 285.467 84.2177 285.66ZM89.1308 287V282H90.0808L90.1308 282.84C90.3041 282.52 90.5341 282.283 90.8208 282.13C91.1141 281.977 91.4241 281.9 91.7508 281.9C92.1108 281.9 92.4408 281.983 92.7408 282.15C93.0474 282.31 93.2774 282.553 93.4308 282.88C93.5374 282.66 93.6841 282.477 93.8708 282.33C94.0574 282.183 94.2641 282.077 94.4908 282.01C94.7174 281.937 94.9408 281.9 95.1608 281.9C95.4808 281.9 95.7808 281.967 96.0608 282.1C96.3408 282.233 96.5674 282.437 96.7408 282.71C96.9141 282.983 97.0008 283.333 97.0008 283.76V287H95.9308V283.93C95.9308 283.517 95.8308 283.223 95.6308 283.05C95.4374 282.87 95.1941 282.78 94.9008 282.78C94.5541 282.78 94.2508 282.91 93.9908 283.17C93.7308 283.423 93.6008 283.793 93.6008 284.28V287H92.5308V283.93C92.5308 283.517 92.4308 283.223 92.2308 283.05C92.0374 282.87 91.7941 282.78 91.5008 282.78C91.3008 282.78 91.1008 282.833 90.9008 282.94C90.7008 283.047 90.5341 283.213 90.4008 283.44C90.2674 283.667 90.2008 283.967 90.2008 284.34V287H89.1308ZM100.823 287.1C100.323 287.1 99.883 286.997 99.503 286.79C99.1296 286.583 98.8363 286.287 98.623 285.9C98.4096 285.507 98.303 285.04 98.303 284.5C98.303 283.96 98.4063 283.497 98.613 283.11C98.8263 282.717 99.1163 282.417 99.483 282.21C99.8563 282.003 100.283 281.9 100.763 281.9C101.25 281.9 101.663 282 102.003 282.2C102.343 282.4 102.603 282.673 102.783 283.02C102.963 283.367 103.053 283.76 103.053 284.2C103.053 284.327 103.05 284.443 103.043 284.55C103.036 284.657 103.026 284.747 103.013 284.82H99.353C99.3996 285.287 99.5496 285.643 99.803 285.89C100.063 286.13 100.396 286.25 100.803 286.25C101.136 286.25 101.406 286.187 101.613 286.06C101.82 285.933 101.983 285.757 102.103 285.53L102.953 285.93C102.78 286.297 102.503 286.583 102.123 286.79C101.75 286.997 101.316 287.1 100.823 287.1ZM100.743 282.75C100.376 282.75 100.073 282.857 99.833 283.07C99.5996 283.283 99.4496 283.593 99.383 284H102.013C101.986 283.6 101.86 283.293 101.633 283.08C101.406 282.86 101.11 282.75 100.743 282.75Z" fill="black"/>
<path d="M144.833 281.6V281.6C144.833 280.768 145.168 279.97 145.762 279.387C146.356 278.804 147.159 278.484 147.991 278.5L147.991 278.5L148.003 278.5C149.004 278.495 149.96 278.919 150.627 279.666L151 280.084L151.373 279.666C152.04 278.919 152.996 278.495 153.998 278.5L153.998 278.5L154.009 278.5C154.841 278.484 155.645 278.804 156.239 279.387C156.832 279.97 157.167 280.768 157.167 281.6V281.6C157.167 283.182 156.223 284.626 154.882 285.988C154.219 286.663 153.477 287.298 152.742 287.904C152.533 288.076 152.324 288.247 152.117 288.415C151.73 288.731 151.351 289.039 151.002 289.337C150.635 289.022 150.236 288.696 149.829 288.363C149.64 288.209 149.45 288.053 149.261 287.897C148.526 287.29 147.784 286.655 147.12 285.982C145.778 284.622 144.833 283.183 144.833 281.6Z" fill="white" stroke="#262626"/>
<path d="M163.03 287V282.47C163.03 282.343 163.03 282.207 163.03 282.06C163.037 281.913 163.043 281.76 163.05 281.6C162.823 281.82 162.563 282.01 162.27 282.17C161.977 282.323 161.68 282.433 161.38 282.5L161.18 281.57C161.313 281.55 161.473 281.503 161.66 281.43C161.853 281.357 162.05 281.263 162.25 281.15C162.45 281.037 162.633 280.917 162.8 280.79C162.967 280.657 163.097 280.527 163.19 280.4H164.09V287H163.03ZM167.953 287.1C167.333 287.1 166.793 286.963 166.333 286.69C165.88 286.41 165.57 286.02 165.403 285.52L166.443 285.03C166.537 285.397 166.703 285.68 166.943 285.88C167.183 286.08 167.533 286.18 167.993 286.18C168.38 286.18 168.68 286.08 168.893 285.88C169.107 285.673 169.213 285.403 169.213 285.07C169.213 284.743 169.117 284.503 168.923 284.35C168.737 284.19 168.437 284.11 168.023 284.11C167.87 284.11 167.7 284.12 167.513 284.14V283.24C167.573 283.247 167.63 283.253 167.683 283.26C167.743 283.26 167.8 283.26 167.853 283.26C168.287 283.26 168.597 283.173 168.783 283C168.97 282.827 169.063 282.557 169.063 282.19C169.063 281.877 168.967 281.637 168.773 281.47C168.58 281.303 168.31 281.22 167.963 281.22C167.597 281.22 167.31 281.307 167.103 281.48C166.897 281.653 166.743 281.897 166.643 282.21L165.663 281.8C165.803 281.347 166.083 280.983 166.503 280.71C166.923 280.43 167.427 280.29 168.013 280.29C168.487 280.29 168.88 280.37 169.193 280.53C169.513 280.683 169.75 280.893 169.903 281.16C170.063 281.42 170.143 281.713 170.143 282.04C170.143 282.373 170.08 282.657 169.953 282.89C169.827 283.117 169.667 283.293 169.473 283.42C169.287 283.547 169.097 283.627 168.903 283.66V283.68C169.157 283.687 169.387 283.75 169.593 283.87C169.807 283.99 169.977 284.157 170.103 284.37C170.23 284.583 170.293 284.827 170.293 285.1C170.293 285.5 170.193 285.85 169.993 286.15C169.793 286.45 169.517 286.683 169.163 286.85C168.817 287.017 168.413 287.1 167.953 287.1ZM171.583 287V286.21C172.216 285.77 172.746 285.377 173.173 285.03C173.606 284.677 173.953 284.357 174.213 284.07C174.473 283.777 174.659 283.497 174.773 283.23C174.893 282.963 174.953 282.693 174.953 282.42C174.953 282.073 174.839 281.79 174.613 281.57C174.393 281.343 174.089 281.23 173.703 281.23C173.289 281.23 172.959 281.37 172.713 281.65C172.473 281.923 172.336 282.3 172.303 282.78L171.373 282.35C171.433 281.723 171.673 281.227 172.093 280.86C172.513 280.487 173.069 280.3 173.763 280.3C174.249 280.3 174.663 280.393 175.003 280.58C175.343 280.767 175.603 281.017 175.783 281.33C175.963 281.643 176.053 281.993 176.053 282.38C176.053 282.8 175.949 283.207 175.743 283.6C175.536 283.987 175.209 284.383 174.763 284.79C174.316 285.197 173.729 285.633 173.003 286.1V286.12C173.083 286.113 173.193 286.107 173.333 286.1C173.473 286.093 173.613 286.09 173.753 286.09C173.893 286.083 174.006 286.08 174.093 286.08H176.173V287H171.583Z" fill="black"/>
<rect y="316" width="189" height="220" rx="12" fill="#C4C4C4"/>
<path d="M6.772 556L4.432 548.08H5.428L7.384 555.124L9.244 548.08H10.336L12.196 555.148L14.152 548.08H15.1L12.772 556H11.584L10.18 550.864L9.772 549.076H9.76L9.352 550.864L7.96 556H6.772ZM16.3426 556V550H17.1226L17.2546 550.984C17.5906 550.248 18.2306 549.88 19.1746 549.88C19.2786 549.88 19.3906 549.888 19.5106 549.904C19.6386 549.92 19.7466 549.952 19.8346 550L19.6666 550.876C19.5786 550.844 19.4826 550.82 19.3786 550.804C19.2746 550.788 19.1266 550.78 18.9346 550.78C18.6866 550.78 18.4346 550.852 18.1786 550.996C17.9306 551.14 17.7226 551.36 17.5546 551.656C17.3866 551.944 17.3026 552.312 17.3026 552.76V556H16.3426ZM21.721 548.848C21.505 548.848 21.329 548.784 21.193 548.656C21.065 548.52 21.001 548.344 21.001 548.128C21.001 547.912 21.065 547.74 21.193 547.612C21.329 547.476 21.505 547.408 21.721 547.408C21.937 547.408 22.109 547.476 22.237 547.612C22.373 547.74 22.441 547.912 22.441 548.128C22.441 548.344 22.373 548.52 22.237 548.656C22.109 548.784 21.937 548.848 21.721 548.848ZM22.201 550V556H21.241V550H22.201ZM28.0285 550V550.828H25.8445V554.344C25.8445 554.64 25.9285 554.86 26.0965 555.004C26.2645 555.148 26.4805 555.22 26.7445 555.22C26.9765 555.22 27.1765 555.18 27.3445 555.1C27.5125 555.02 27.6645 554.912 27.8005 554.776L28.1365 555.58C27.9525 555.748 27.7325 555.88 27.4765 555.976C27.2285 556.072 26.9405 556.12 26.6125 556.12C26.3085 556.12 26.0245 556.068 25.7605 555.964C25.4965 555.852 25.2845 555.68 25.1245 555.448C24.9725 555.208 24.8925 554.896 24.8845 554.512V550.828H23.6845V550H24.8845V548.56L25.8445 548.296V550H28.0285ZM31.9638 556.12C31.3958 556.12 30.8878 555.996 30.4398 555.748C29.9998 555.5 29.6558 555.144 29.4078 554.68C29.1598 554.208 29.0358 553.648 29.0358 553C29.0358 552.352 29.1598 551.796 29.4078 551.332C29.6558 550.86 29.9958 550.5 30.4278 550.252C30.8598 550.004 31.3518 549.88 31.9038 549.88C32.4638 549.88 32.9398 550 33.3318 550.24C33.7318 550.48 34.0358 550.808 34.2438 551.224C34.4518 551.632 34.5558 552.092 34.5558 552.604C34.5558 552.74 34.5518 552.864 34.5438 552.976C34.5358 553.088 34.5238 553.188 34.5078 553.276H29.9838C30.0318 553.908 30.2278 554.4 30.5718 554.752C30.9158 555.104 31.3718 555.28 31.9398 555.28C32.3798 555.28 32.7358 555.196 33.0078 555.028C33.2878 554.86 33.5118 554.632 33.6798 554.344L34.4358 554.788C34.2118 555.196 33.8878 555.52 33.4638 555.76C33.0478 556 32.5478 556.12 31.9638 556.12ZM31.8798 550.72C31.3758 550.72 30.9598 550.872 30.6318 551.176C30.3118 551.472 30.1078 551.888 30.0198 552.424H33.5958C33.5718 551.88 33.4038 551.46 33.0918 551.164C32.7798 550.868 32.3758 550.72 31.8798 550.72ZM43.9755 552.124C43.9755 551.676 43.8555 551.332 43.6155 551.092C43.3755 550.844 43.0355 550.72 42.5955 550.72C42.1795 550.72 41.8275 550.812 41.5395 550.996C41.2515 551.172 41.0395 551.46 40.9035 551.86L40.1235 551.38C40.2835 550.932 40.5795 550.572 41.0115 550.3C41.4435 550.02 41.9795 549.88 42.6195 549.88C43.0515 549.88 43.4435 549.956 43.7955 550.108C44.1475 550.252 44.4235 550.476 44.6235 550.78C44.8315 551.076 44.9355 551.46 44.9355 551.932V554.836C44.9355 555.124 45.0875 555.268 45.3915 555.268C45.5435 555.268 45.6915 555.248 45.8355 555.208L45.7875 555.964C45.6275 556.044 45.4195 556.084 45.1635 556.084C44.8675 556.084 44.6115 556.012 44.3955 555.868C44.1875 555.724 44.0515 555.504 43.9875 555.208C43.7795 555.52 43.4955 555.752 43.1355 555.904C42.7755 556.048 42.4195 556.12 42.0675 556.12C41.7155 556.12 41.3875 556.06 41.0835 555.94C40.7795 555.82 40.5355 555.64 40.3515 555.4C40.1755 555.152 40.0875 554.848 40.0875 554.488C40.0875 554.04 40.2355 553.672 40.5315 553.384C40.8355 553.088 41.2555 552.888 41.7915 552.784L43.9755 552.352V552.124ZM41.0715 554.44C41.0715 554.688 41.1675 554.892 41.3595 555.052C41.5595 555.204 41.8395 555.28 42.1995 555.28C42.5115 555.28 42.7995 555.228 43.0635 555.124C43.3355 555.012 43.5555 554.848 43.7235 554.632C43.8915 554.408 43.9755 554.124 43.9755 553.78V553.144L42.2355 553.504C41.8435 553.584 41.5515 553.696 41.3595 553.84C41.1675 553.984 41.0715 554.184 41.0715 554.44ZM47.2683 556V550H48.1083L48.1683 550.936C48.3763 550.56 48.6603 550.292 49.0203 550.132C49.3803 549.964 49.7683 549.88 50.1843 549.88C50.6163 549.88 51.0083 549.964 51.3603 550.132C51.7123 550.292 51.9923 550.54 52.2003 550.876C52.4163 551.212 52.5243 551.64 52.5243 552.16V556H51.5643V552.496C51.5643 551.832 51.4203 551.372 51.1323 551.116C50.8523 550.852 50.5043 550.72 50.0883 550.72C49.8003 550.72 49.5123 550.788 49.2243 550.924C48.9363 551.06 48.6963 551.28 48.5043 551.584C48.3203 551.888 48.2283 552.296 48.2283 552.808V556H47.2683ZM61.2959 556.12C60.7279 556.12 60.2199 555.996 59.7719 555.748C59.3319 555.5 58.9879 555.144 58.7399 554.68C58.4919 554.208 58.3679 553.648 58.3679 553C58.3679 552.352 58.4919 551.796 58.7399 551.332C58.9879 550.86 59.3279 550.5 59.7599 550.252C60.1919 550.004 60.6839 549.88 61.2359 549.88C61.7959 549.88 62.2719 550 62.6639 550.24C63.0639 550.48 63.3679 550.808 63.5759 551.224C63.7839 551.632 63.8879 552.092 63.8879 552.604C63.8879 552.74 63.8839 552.864 63.8759 552.976C63.8679 553.088 63.8559 553.188 63.8399 553.276H59.3159C59.3639 553.908 59.5599 554.4 59.9039 554.752C60.2479 555.104 60.7039 555.28 61.2719 555.28C61.7119 555.28 62.0679 555.196 62.3399 555.028C62.6199 554.86 62.8439 554.632 63.0119 554.344L63.7679 554.788C63.5439 555.196 63.2199 555.52 62.7959 555.76C62.3799 556 61.8799 556.12 61.2959 556.12ZM61.2119 550.72C60.7079 550.72 60.2919 550.872 59.9639 551.176C59.6439 551.472 59.4399 551.888 59.3519 552.424H62.9279C62.9039 551.88 62.7359 551.46 62.4239 551.164C62.1119 550.868 61.7079 550.72 61.2119 550.72ZM65.7137 556V550H66.5537L66.6137 550.936C66.8217 550.56 67.1057 550.292 67.4657 550.132C67.8257 549.964 68.2137 549.88 68.6297 549.88C69.0617 549.88 69.4537 549.964 69.8057 550.132C70.1577 550.292 70.4377 550.54 70.6457 550.876C70.8617 551.212 70.9697 551.64 70.9697 552.16V556H70.0097V552.496C70.0097 551.832 69.8657 551.372 69.5777 551.116C69.2977 550.852 68.9497 550.72 68.5337 550.72C68.2457 550.72 67.9577 550.788 67.6697 550.924C67.3817 551.06 67.1417 551.28 66.9497 551.584C66.7657 551.888 66.6737 552.296 66.6737 552.808V556H65.7137ZM76.6613 550V550.828H74.4773V554.344C74.4773 554.64 74.5613 554.86 74.7293 555.004C74.8973 555.148 75.1133 555.22 75.3773 555.22C75.6093 555.22 75.8093 555.18 75.9773 555.1C76.1453 555.02 76.2973 554.912 76.4333 554.776L76.7693 555.58C76.5853 555.748 76.3653 555.88 76.1093 555.976C75.8613 556.072 75.5733 556.12 75.2453 556.12C74.9413 556.12 74.6573 556.068 74.3933 555.964C74.1293 555.852 73.9173 555.68 73.7573 555.448C73.6053 555.208 73.5253 554.896 73.5173 554.512V550.828H72.3173V550H73.5173V548.56L74.4773 548.296V550H76.6613ZM78.5687 548.848C78.3527 548.848 78.1767 548.784 78.0407 548.656C77.9127 548.52 77.8487 548.344 77.8487 548.128C77.8487 547.912 77.9127 547.74 78.0407 547.612C78.1767 547.476 78.3527 547.408 78.5687 547.408C78.7847 547.408 78.9567 547.476 79.0847 547.612C79.2207 547.74 79.2887 547.912 79.2887 548.128C79.2887 548.344 79.2207 548.52 79.0847 548.656C78.9567 548.784 78.7847 548.848 78.5687 548.848ZM79.0487 550V556H78.0887V550H79.0487ZM83.7602 549.88C84.3762 549.88 84.8882 550.024 85.2962 550.312C85.7042 550.592 86.0202 550.98 86.2442 551.476L85.3322 551.908C85.2042 551.524 85.0082 551.232 84.7442 551.032C84.4882 550.824 84.1522 550.72 83.7362 550.72C83.1362 550.72 82.6642 550.924 82.3202 551.332C81.9842 551.732 81.8162 552.288 81.8162 553C81.8162 553.712 81.9842 554.272 82.3202 554.68C82.6642 555.08 83.1362 555.28 83.7362 555.28C84.2082 555.28 84.5842 555.172 84.8642 554.956C85.1442 554.74 85.3282 554.436 85.4162 554.044L86.3042 554.356C86.1042 554.908 85.7882 555.34 85.3562 555.652C84.9322 555.964 84.4002 556.12 83.7602 556.12C83.2002 556.12 82.7002 555.996 82.2602 555.748C81.8202 555.5 81.4762 555.144 81.2282 554.68C80.9802 554.208 80.8562 553.648 80.8562 553C80.8562 552.352 80.9802 551.796 81.2282 551.332C81.4762 550.86 81.8202 550.5 82.2602 550.252C82.7002 550.004 83.2002 549.88 83.7602 549.88ZM88.471 548.848C88.255 548.848 88.079 548.784 87.943 548.656C87.815 548.52 87.751 548.344 87.751 548.128C87.751 547.912 87.815 547.74 87.943 547.612C88.079 547.476 88.255 547.408 88.471 547.408C88.687 547.408 88.859 547.476 88.987 547.612C89.123 547.74 89.191 547.912 89.191 548.128C89.191 548.344 89.123 548.52 88.987 548.656C88.859 548.784 88.687 548.848 88.471 548.848ZM88.951 550V556H87.991V550H88.951ZM91.1785 556V550H92.0185L92.0785 550.936C92.2865 550.56 92.5705 550.292 92.9305 550.132C93.2905 549.964 93.6785 549.88 94.0945 549.88C94.5265 549.88 94.9185 549.964 95.2705 550.132C95.6225 550.292 95.9025 550.54 96.1105 550.876C96.3265 551.212 96.4345 551.64 96.4345 552.16V556H95.4745V552.496C95.4745 551.832 95.3305 551.372 95.0425 551.116C94.7625 550.852 94.4145 550.72 93.9985 550.72C93.7105 550.72 93.4225 550.788 93.1345 550.924C92.8465 551.06 92.6065 551.28 92.4145 551.584C92.2305 551.888 92.1385 552.296 92.1385 552.808V556H91.1785ZM101.836 555.232C102.404 555.232 102.848 555.364 103.168 555.628C103.488 555.884 103.648 556.228 103.648 556.66C103.648 557.052 103.516 557.392 103.252 557.68C102.996 557.968 102.648 558.188 102.208 558.34C101.776 558.5 101.288 558.58 100.744 558.58C99.8002 558.58 99.0922 558.42 98.6202 558.1C98.1562 557.78 97.9242 557.396 97.9242 556.948C97.9242 556.676 98.0002 556.428 98.1522 556.204C98.3042 555.98 98.5562 555.82 98.9082 555.724C98.7162 555.636 98.5602 555.516 98.4402 555.364C98.3202 555.204 98.2602 554.992 98.2602 554.728C98.2602 554.48 98.3322 554.256 98.4762 554.056C98.6202 553.848 98.8362 553.688 99.1242 553.576C98.8202 553.4 98.5882 553.168 98.4282 552.88C98.2682 552.592 98.1882 552.268 98.1882 551.908C98.1882 551.508 98.2922 551.156 98.5002 550.852C98.7162 550.548 99.0082 550.312 99.3762 550.144C99.7442 549.968 100.168 549.88 100.648 549.88C101.152 549.88 101.604 549.98 102.004 550.18C102.06 549.78 102.236 549.468 102.532 549.244C102.836 549.012 103.192 548.896 103.6 548.896H103.66L103.876 549.748H103.792C103.424 549.748 103.136 549.816 102.928 549.952C102.72 550.088 102.604 550.3 102.58 550.588C102.932 550.956 103.108 551.396 103.108 551.908C103.108 552.3 103.004 552.652 102.796 552.964C102.588 553.268 102.296 553.508 101.92 553.684C101.552 553.852 101.128 553.936 100.648 553.936C100.352 553.936 100.076 553.908 99.8202 553.852C99.5802 553.924 99.4082 554.024 99.3042 554.152C99.2002 554.28 99.1482 554.42 99.1482 554.572C99.1482 555.012 99.4602 555.232 100.084 555.232H101.836ZM100.648 550.66C100.232 550.66 99.8842 550.776 99.6042 551.008C99.3242 551.232 99.1842 551.532 99.1842 551.908C99.1842 552.276 99.3242 552.576 99.6042 552.808C99.8842 553.04 100.232 553.156 100.648 553.156C101.064 553.156 101.412 553.04 101.692 552.808C101.972 552.576 102.112 552.276 102.112 551.908C102.112 551.532 101.972 551.232 101.692 551.008C101.412 550.776 101.064 550.66 100.648 550.66ZM100.732 557.776C101.428 557.776 101.94 557.672 102.268 557.464C102.596 557.264 102.76 557.032 102.76 556.768C102.76 556.552 102.672 556.38 102.496 556.252C102.328 556.124 102.02 556.06 101.572 556.06H99.7242C99.4682 556.06 99.2522 556.124 99.0762 556.252C98.9002 556.388 98.8122 556.572 98.8122 556.804C98.8122 557.1 98.9802 557.336 99.3162 557.512C99.6602 557.688 100.132 557.776 100.732 557.776ZM112.752 550H113.76L111.264 556H110.304L107.808 550H108.9L110.796 555.028L112.752 550ZM115.494 548.848C115.278 548.848 115.102 548.784 114.966 548.656C114.838 548.52 114.774 548.344 114.774 548.128C114.774 547.912 114.838 547.74 114.966 547.612C115.102 547.476 115.278 547.408 115.494 547.408C115.71 547.408 115.882 547.476 116.01 547.612C116.146 547.74 116.214 547.912 116.214 548.128C116.214 548.344 116.146 548.52 116.01 548.656C115.882 548.784 115.71 548.848 115.494 548.848ZM115.974 550V556H115.014V550H115.974ZM120.542 556.12C120.046 556.12 119.59 555.996 119.174 555.748C118.758 555.5 118.426 555.144 118.178 554.68C117.93 554.208 117.806 553.648 117.806 553C117.806 552.336 117.938 551.772 118.202 551.308C118.466 550.844 118.814 550.492 119.246 550.252C119.678 550.004 120.142 549.88 120.638 549.88C121.07 549.88 121.454 549.98 121.79 550.18C122.126 550.372 122.374 550.636 122.534 550.972V547.24H123.494V556H122.654L122.594 554.872C122.426 555.28 122.154 555.592 121.778 555.808C121.402 556.016 120.99 556.12 120.542 556.12ZM120.638 555.28C121.206 555.28 121.662 555.068 122.006 554.644C122.358 554.22 122.534 553.644 122.534 552.916C122.534 552.228 122.362 551.692 122.018 551.308C121.674 550.916 121.23 550.72 120.686 550.72C120.078 550.72 119.606 550.928 119.27 551.344C118.934 551.76 118.766 552.312 118.766 553C118.766 553.688 118.93 554.24 119.258 554.656C119.586 555.072 120.046 555.28 120.638 555.28ZM128.233 556.12C127.665 556.12 127.157 555.996 126.709 555.748C126.269 555.5 125.925 555.144 125.677 554.68C125.429 554.208 125.305 553.648 125.305 553C125.305 552.352 125.429 551.796 125.677 551.332C125.925 550.86 126.265 550.5 126.697 550.252C127.129 550.004 127.621 549.88 128.173 549.88C128.733 549.88 129.209 550 129.601 550.24C130.001 550.48 130.305 550.808 130.513 551.224C130.721 551.632 130.825 552.092 130.825 552.604C130.825 552.74 130.821 552.864 130.813 552.976C130.805 553.088 130.793 553.188 130.777 553.276H126.253C126.301 553.908 126.497 554.4 126.841 554.752C127.185 555.104 127.641 555.28 128.209 555.28C128.649 555.28 129.005 555.196 129.277 555.028C129.557 554.86 129.781 554.632 129.949 554.344L130.705 554.788C130.481 555.196 130.157 555.52 129.733 555.76C129.317 556 128.817 556.12 128.233 556.12ZM128.149 550.72C127.645 550.72 127.229 550.872 126.901 551.176C126.581 551.472 126.377 551.888 126.289 552.424H129.865C129.841 551.88 129.673 551.46 129.361 551.164C129.049 550.868 128.645 550.72 128.149 550.72ZM135.135 549.88C135.703 549.88 136.203 550.004 136.635 550.252C137.075 550.5 137.419 550.86 137.667 551.332C137.915 551.796 138.039 552.352 138.039 553C138.039 553.648 137.915 554.208 137.667 554.68C137.419 555.144 137.075 555.5 136.635 555.748C136.203 555.996 135.703 556.12 135.135 556.12C134.575 556.12 134.075 555.996 133.635 555.748C133.195 555.5 132.851 555.144 132.603 554.68C132.355 554.208 132.231 553.648 132.231 553C132.231 552.352 132.355 551.796 132.603 551.332C132.851 550.86 133.195 550.5 133.635 550.252C134.075 550.004 134.575 549.88 135.135 549.88ZM135.135 550.708C134.527 550.708 134.051 550.912 133.707 551.32C133.363 551.728 133.191 552.288 133.191 553C133.191 553.712 133.363 554.272 133.707 554.68C134.051 555.088 134.527 555.292 135.135 555.292C135.743 555.292 136.219 555.088 136.563 554.68C136.907 554.272 137.079 553.712 137.079 553C137.079 552.288 136.907 551.728 136.563 551.32C136.219 550.912 135.743 550.708 135.135 550.708ZM147.302 550V550.828H145.118V554.344C145.118 554.64 145.202 554.86 145.37 555.004C145.538 555.148 145.754 555.22 146.018 555.22C146.25 555.22 146.45 555.18 146.618 555.1C146.786 555.02 146.938 554.912 147.074 554.776L147.41 555.58C147.226 555.748 147.006 555.88 146.75 555.976C146.502 556.072 146.214 556.12 145.886 556.12C145.582 556.12 145.298 556.068 145.034 555.964C144.77 555.852 144.558 555.68 144.398 555.448C144.246 555.208 144.166 554.896 144.158 554.512V550.828H142.958V550H144.158V548.56L145.118 548.296V550H147.302ZM149.209 548.848C148.993 548.848 148.817 548.784 148.681 548.656C148.553 548.52 148.489 548.344 148.489 548.128C148.489 547.912 148.553 547.74 148.681 547.612C148.817 547.476 148.993 547.408 149.209 547.408C149.425 547.408 149.597 547.476 149.725 547.612C149.861 547.74 149.929 547.912 149.929 548.128C149.929 548.344 149.861 548.52 149.725 548.656C149.597 548.784 149.425 548.848 149.209 548.848ZM149.689 550V556H148.729V550H149.689ZM155.517 550V550.828H153.333V554.344C153.333 554.64 153.417 554.86 153.585 555.004C153.753 555.148 153.969 555.22 154.233 555.22C154.465 555.22 154.665 555.18 154.833 555.1C155.001 555.02 155.153 554.912 155.289 554.776L155.625 555.58C155.441 555.748 155.221 555.88 154.965 555.976C154.717 556.072 154.429 556.12 154.101 556.12C153.797 556.12 153.513 556.068 153.249 555.964C152.985 555.852 152.773 555.68 152.613 555.448C152.461 555.208 152.381 554.896 152.373 554.512V550.828H151.173V550H152.373V548.56L153.333 548.296V550H155.517ZM157.856 547.24V554.476C157.856 554.78 157.912 554.992 158.024 555.112C158.136 555.224 158.316 555.28 158.564 555.28C158.724 555.28 158.856 555.268 158.96 555.244C159.064 555.22 159.204 555.176 159.38 555.112L159.224 555.952C158.96 556.064 158.664 556.12 158.336 556.12C157.376 556.12 156.896 555.584 156.896 554.512V547.24H157.856ZM163.12 556.12C162.552 556.12 162.044 555.996 161.596 555.748C161.156 555.5 160.812 555.144 160.564 554.68C160.316 554.208 160.192 553.648 160.192 553C160.192 552.352 160.316 551.796 160.564 551.332C160.812 550.86 161.152 550.5 161.584 550.252C162.016 550.004 162.508 549.88 163.06 549.88C163.62 549.88 164.096 550 164.488 550.24C164.888 550.48 165.192 550.808 165.4 551.224C165.608 551.632 165.712 552.092 165.712 552.604C165.712 552.74 165.708 552.864 165.7 552.976C165.692 553.088 165.68 553.188 165.664 553.276H161.14C161.188 553.908 161.384 554.4 161.728 554.752C162.072 555.104 162.528 555.28 163.096 555.28C163.536 555.28 163.892 555.196 164.164 555.028C164.444 554.86 164.668 554.632 164.836 554.344L165.592 554.788C165.368 555.196 165.044 555.52 164.62 555.76C164.204 556 163.704 556.12 163.12 556.12ZM163.036 550.72C162.532 550.72 162.116 550.872 161.788 551.176C161.468 551.472 161.264 551.888 161.176 552.424H164.752C164.728 551.88 164.56 551.46 164.248 551.164C163.936 550.868 163.532 550.72 163.036 550.72ZM7.3 562.988L7.852 563.54C7.06 564.268 6.504 565.048 6.184 565.88C5.872 566.712 5.716 567.628 5.716 568.628C5.716 569.628 5.872 570.544 6.184 571.376C6.504 572.208 7.06 572.988 7.852 573.716L7.3 574.268C5.588 572.788 4.732 570.908 4.732 568.628C4.732 566.348 5.588 564.468 7.3 562.988ZM16.995 564.08V572H16.083V567.02L16.191 564.932H16.179L13.575 572H12.759L10.155 564.932H10.143L10.251 567.02V572H9.33897V564.08H10.815L12.555 568.892L13.155 570.872H13.179L13.791 568.904L15.519 564.08H16.995ZM22.8348 568.124C22.8348 567.676 22.7148 567.332 22.4748 567.092C22.2348 566.844 21.8948 566.72 21.4548 566.72C21.0388 566.72 20.6868 566.812 20.3988 566.996C20.1108 567.172 19.8988 567.46 19.7628 567.86L18.9828 567.38C19.1428 566.932 19.4388 566.572 19.8708 566.3C20.3028 566.02 20.8388 565.88 21.4788 565.88C21.9108 565.88 22.3028 565.956 22.6548 566.108C23.0068 566.252 23.2828 566.476 23.4828 566.78C23.6908 567.076 23.7948 567.46 23.7948 567.932V570.836C23.7948 571.124 23.9468 571.268 24.2508 571.268C24.4028 571.268 24.5508 571.248 24.6948 571.208L24.6468 571.964C24.4868 572.044 24.2788 572.084 24.0228 572.084C23.7268 572.084 23.4708 572.012 23.2548 571.868C23.0468 571.724 22.9108 571.504 22.8468 571.208C22.6388 571.52 22.3548 571.752 21.9948 571.904C21.6348 572.048 21.2788 572.12 20.9268 572.12C20.5748 572.12 20.2468 572.06 19.9428 571.94C19.6388 571.82 19.3948 571.64 19.2108 571.4C19.0348 571.152 18.9468 570.848 18.9468 570.488C18.9468 570.04 19.0948 569.672 19.3908 569.384C19.6948 569.088 20.1148 568.888 20.6508 568.784L22.8348 568.352V568.124ZM19.9308 570.44C19.9308 570.688 20.0268 570.892 20.2188 571.052C20.4188 571.204 20.6988 571.28 21.0588 571.28C21.3708 571.28 21.6588 571.228 21.9228 571.124C22.1948 571.012 22.4148 570.848 22.5828 570.632C22.7508 570.408 22.8348 570.124 22.8348 569.78V569.144L21.0948 569.504C20.7028 569.584 20.4108 569.696 20.2188 569.84C20.0268 569.984 19.9308 570.184 19.9308 570.44ZM26.7037 566L28.2877 568.22L29.8477 566H30.9757L28.8037 568.94L31.0117 572H29.8357L28.1797 569.684L26.4757 572H25.3597L27.6637 568.976L25.5037 566H26.7037ZM36.1536 572V571.22C36.9456 570.636 37.6056 570.124 38.1336 569.684C38.6696 569.244 39.0976 568.844 39.4176 568.484C39.7376 568.124 39.9656 567.784 40.1016 567.464C40.2376 567.136 40.3056 566.796 40.3056 566.444C40.3056 565.972 40.1536 565.592 39.8496 565.304C39.5536 565.008 39.1456 564.86 38.6256 564.86C38.0816 564.86 37.6456 565.04 37.3176 565.4C36.9896 565.752 36.7976 566.224 36.7416 566.816L35.9016 566.312C36.0056 565.624 36.2896 565.06 36.7536 564.62C37.2256 564.18 37.8616 563.96 38.6616 563.96C39.2056 563.96 39.6736 564.068 40.0656 564.284C40.4656 564.492 40.7736 564.784 40.9896 565.16C41.2056 565.528 41.3136 565.956 41.3136 566.444C41.3136 566.94 41.1936 567.428 40.9536 567.908C40.7136 568.38 40.3176 568.876 39.7656 569.396C39.2136 569.916 38.4656 570.492 37.5216 571.124V571.136C37.6096 571.128 37.7296 571.124 37.8816 571.124C38.0416 571.116 38.1976 571.112 38.3496 571.112C38.5096 571.104 38.6296 571.1 38.7096 571.1H41.4816V572H36.1536ZM48.3796 563.24V570.476C48.3796 570.78 48.4356 570.992 48.5476 571.112C48.6596 571.224 48.8396 571.28 49.0876 571.28C49.2476 571.28 49.3796 571.268 49.4836 571.244C49.5876 571.22 49.7276 571.176 49.9036 571.112L49.7476 571.952C49.4836 572.064 49.1876 572.12 48.8596 572.12C47.8996 572.12 47.4196 571.584 47.4196 570.512V563.24H48.3796ZM51.6155 564.848C51.3995 564.848 51.2235 564.784 51.0875 564.656C50.9595 564.52 50.8955 564.344 50.8955 564.128C50.8955 563.912 50.9595 563.74 51.0875 563.612C51.2235 563.476 51.3995 563.408 51.6155 563.408C51.8315 563.408 52.0035 563.476 52.1315 563.612C52.2675 563.74 52.3355 563.912 52.3355 564.128C52.3355 564.344 52.2675 564.52 52.1315 564.656C52.0035 564.784 51.8315 564.848 51.6155 564.848ZM52.0955 566V572H51.1355V566H52.0955ZM54.323 572V566H55.163L55.223 566.936C55.431 566.56 55.715 566.292 56.075 566.132C56.435 565.964 56.823 565.88 57.239 565.88C57.671 565.88 58.063 565.964 58.415 566.132C58.767 566.292 59.047 566.54 59.255 566.876C59.471 567.212 59.579 567.64 59.579 568.16V572H58.619V568.496C58.619 567.832 58.475 567.372 58.187 567.116C57.907 566.852 57.559 566.72 57.143 566.72C56.855 566.72 56.567 566.788 56.279 566.924C55.991 567.06 55.751 567.28 55.559 567.584C55.375 567.888 55.283 568.296 55.283 568.808V572H54.323ZM64.2607 572.12C63.6927 572.12 63.1847 571.996 62.7367 571.748C62.2967 571.5 61.9527 571.144 61.7047 570.68C61.4567 570.208 61.3327 569.648 61.3327 569C61.3327 568.352 61.4567 567.796 61.7047 567.332C61.9527 566.86 62.2927 566.5 62.7247 566.252C63.1567 566.004 63.6487 565.88 64.2007 565.88C64.7607 565.88 65.2367 566 65.6287 566.24C66.0287 566.48 66.3327 566.808 66.5407 567.224C66.7487 567.632 66.8527 568.092 66.8527 568.604C66.8527 568.74 66.8487 568.864 66.8407 568.976C66.8327 569.088 66.8207 569.188 66.8047 569.276H62.2807C62.3287 569.908 62.5247 570.4 62.8687 570.752C63.2127 571.104 63.6687 571.28 64.2367 571.28C64.6767 571.28 65.0327 571.196 65.3047 571.028C65.5847 570.86 65.8087 570.632 65.9767 570.344L66.7327 570.788C66.5087 571.196 66.1847 571.52 65.7607 571.76C65.3447 572 64.8447 572.12 64.2607 572.12ZM64.1767 566.72C63.6727 566.72 63.2567 566.872 62.9287 567.176C62.6087 567.472 62.4047 567.888 62.3167 568.424H65.8927C65.8687 567.88 65.7007 567.46 65.3887 567.164C65.0767 566.868 64.6727 566.72 64.1767 566.72ZM70.8385 572.12C70.2545 572.12 69.7145 571.996 69.2185 571.748C68.7305 571.5 68.3545 571.148 68.0905 570.692L68.9065 570.104C69.0825 570.472 69.3385 570.76 69.6745 570.968C70.0185 571.176 70.4305 571.28 70.9105 571.28C71.3345 571.28 71.6665 571.2 71.9065 571.04C72.1465 570.872 72.2665 570.656 72.2665 570.392C72.2665 570.224 72.2105 570.072 72.0985 569.936C71.9945 569.792 71.7905 569.688 71.4865 569.624L70.0465 569.324C69.4625 569.204 69.0425 569.004 68.7865 568.724C68.5385 568.444 68.4145 568.096 68.4145 567.68C68.4145 567.352 68.5065 567.052 68.6905 566.78C68.8825 566.508 69.1505 566.292 69.4945 566.132C69.8465 565.964 70.2585 565.88 70.7305 565.88C71.3225 565.88 71.8225 565.996 72.2305 566.228C72.6385 566.46 72.9425 566.788 73.1425 567.212L72.3385 567.74C72.2025 567.388 71.9825 567.132 71.6785 566.972C71.3745 566.804 71.0585 566.72 70.7305 566.72C70.2985 566.72 69.9625 566.808 69.7225 566.984C69.4825 567.16 69.3625 567.38 69.3625 567.644C69.3625 567.82 69.4225 567.984 69.5425 568.136C69.6625 568.28 69.8865 568.384 70.2145 568.448L71.7145 568.76C72.2745 568.872 72.6665 569.056 72.8905 569.312C73.1145 569.568 73.2265 569.88 73.2265 570.248C73.2265 570.816 73.0065 571.272 72.5665 571.616C72.1265 571.952 71.5505 572.12 70.8385 572.12ZM74.275 574.268L73.723 573.716C74.515 572.988 75.067 572.208 75.379 571.376C75.699 570.544 75.859 569.628 75.859 568.628C75.859 567.628 75.699 566.712 75.379 565.88C75.067 565.048 74.515 564.268 73.723 563.54L74.275 562.988C75.987 564.468 76.843 566.348 76.843 568.628C76.843 570.908 75.987 572.788 74.275 574.268Z" fill="black"/>
<circle cx="20" cy="600" r="16" fill="#C4C4C4"/>
<path d="M40.2 603L42.69 596.4H43.97L46.46 603H45.33L44.71 601.27H41.93L41.3 603H40.2ZM43.02 598.26L42.24 600.4H44.39L43.63 598.28L43.33 597.33H43.3L43.02 598.26ZM49.192 603.1C48.8654 603.1 48.562 603.04 48.282 602.92C48.0087 602.8 47.7887 602.607 47.622 602.34C47.4554 602.073 47.372 601.727 47.372 601.3V598H48.442V601.03C48.442 601.483 48.5354 601.797 48.722 601.97C48.9154 602.137 49.1887 602.22 49.542 602.22C49.7687 602.22 49.982 602.17 50.182 602.07C50.382 601.963 50.542 601.8 50.662 601.58C50.7887 601.353 50.852 601.063 50.852 600.71V598H51.922V603H50.982L50.932 602.19C50.7587 602.503 50.5254 602.733 50.232 602.88C49.9387 603.027 49.592 603.1 49.192 603.1ZM56.7737 598V598.84H55.0537V601.5C55.0537 601.74 55.1203 601.92 55.2537 602.04C55.387 602.153 55.5603 602.21 55.7737 602.21C55.9603 602.21 56.117 602.183 56.2437 602.13C56.377 602.07 56.5003 601.99 56.6137 601.89L56.8537 602.67C56.7003 602.803 56.5103 602.91 56.2837 602.99C56.0637 603.063 55.817 603.1 55.5437 603.1C55.1037 603.1 54.7337 602.993 54.4337 602.78C54.1337 602.56 53.9837 602.193 53.9837 601.68V598.84H53.0237V598H53.9837V596.83L55.0537 596.53V598H56.7737ZM57.871 603V595.75H58.941V598.8C59.1077 598.487 59.331 598.26 59.611 598.12C59.8977 597.973 60.2143 597.9 60.561 597.9C60.9143 597.9 61.231 597.97 61.511 598.11C61.7977 598.243 62.0243 598.45 62.191 598.73C62.3577 599.003 62.441 599.347 62.441 599.76V603H61.371V600.1C61.371 599.6 61.2677 599.257 61.061 599.07C60.861 598.877 60.6077 598.78 60.301 598.78C60.081 598.78 59.8677 598.833 59.661 598.94C59.4543 599.04 59.281 599.207 59.141 599.44C59.0077 599.667 58.941 599.973 58.941 600.36V603H57.871ZM66.2324 597.9C66.7191 597.9 67.1491 598.003 67.5224 598.21C67.8958 598.417 68.1858 598.717 68.3924 599.11C68.6058 599.497 68.7124 599.96 68.7124 600.5C68.7124 601.04 68.6058 601.507 68.3924 601.9C68.1858 602.287 67.8958 602.583 67.5224 602.79C67.1491 602.997 66.7191 603.1 66.2324 603.1C65.7458 603.1 65.3158 602.997 64.9424 602.79C64.5691 602.583 64.2758 602.287 64.0624 601.9C63.8491 601.507 63.7424 601.04 63.7424 600.5C63.7424 599.96 63.8491 599.497 64.0624 599.11C64.2758 598.717 64.5691 598.417 64.9424 598.21C65.3158 598.003 65.7458 597.9 66.2324 597.9ZM66.2324 598.74C65.7924 598.74 65.4458 598.893 65.1924 599.2C64.9391 599.5 64.8124 599.933 64.8124 600.5C64.8124 601.067 64.9391 601.503 65.1924 601.81C65.4458 602.11 65.7924 602.26 66.2324 602.26C66.6724 602.26 67.0158 602.11 67.2624 601.81C67.5158 601.503 67.6424 601.067 67.6424 600.5C67.6424 599.933 67.5158 599.5 67.2624 599.2C67.0158 598.893 66.6724 598.74 66.2324 598.74ZM70.0585 603V598H70.9685L71.0685 598.9C71.3418 598.233 71.8652 597.9 72.6385 597.9C72.7385 597.9 72.8385 597.91 72.9385 597.93C73.0385 597.943 73.1218 597.967 73.1885 598L73.0385 598.94C72.9652 598.913 72.8818 598.893 72.7885 598.88C72.7018 598.86 72.5818 598.85 72.4285 598.85C72.2152 598.85 72.0085 598.907 71.8085 599.02C71.6152 599.127 71.4518 599.293 71.3185 599.52C71.1918 599.74 71.1285 600.017 71.1285 600.35V603H70.0585ZM77.2363 603V598H78.1863L78.2363 598.86C78.4029 598.527 78.6329 598.283 78.9263 598.13C79.2263 597.977 79.5596 597.9 79.9263 597.9C80.2796 597.9 80.5963 597.97 80.8763 598.11C81.1629 598.243 81.3896 598.45 81.5563 598.73C81.7229 599.003 81.8063 599.347 81.8063 599.76V603H80.7363V600.09C80.7363 599.597 80.6329 599.257 80.4263 599.07C80.2263 598.877 79.9729 598.78 79.6663 598.78C79.4463 598.78 79.2329 598.83 79.0263 598.93C78.8196 599.03 78.6463 599.197 78.5063 599.43C78.3729 599.657 78.3063 599.96 78.3063 600.34V603H77.2363ZM86.3177 599.79C86.3177 599.457 86.2243 599.2 86.0377 599.02C85.8577 598.833 85.6077 598.74 85.2877 598.74C84.9877 598.74 84.7277 598.81 84.5077 598.95C84.2943 599.09 84.141 599.317 84.0477 599.63L83.1477 599.25C83.2743 598.843 83.521 598.517 83.8877 598.27C84.261 598.023 84.741 597.9 85.3277 597.9C85.721 597.9 86.071 597.967 86.3777 598.1C86.691 598.227 86.9343 598.423 87.1077 598.69C87.2877 598.95 87.3777 599.28 87.3777 599.68V601.91C87.3777 602.157 87.501 602.28 87.7477 602.28C87.8677 602.28 87.9843 602.263 88.0977 602.23L88.0377 602.97C87.8843 603.043 87.691 603.08 87.4577 603.08C87.191 603.08 86.961 603.02 86.7677 602.9C86.5743 602.78 86.4443 602.6 86.3777 602.36C86.2177 602.607 85.9877 602.793 85.6877 602.92C85.3877 603.04 85.0877 603.1 84.7877 603.1C84.3143 603.1 83.921 602.987 83.6077 602.76C83.2943 602.533 83.1377 602.193 83.1377 601.74C83.1377 601.373 83.2577 601.07 83.4977 600.83C83.7443 600.59 84.091 600.423 84.5377 600.33L86.3177 599.98V599.79ZM84.2177 601.66C84.2177 601.847 84.2877 601.997 84.4277 602.11C84.5743 602.217 84.7677 602.27 85.0077 602.27C85.2343 602.27 85.4477 602.233 85.6477 602.16C85.8477 602.087 86.0077 601.967 86.1277 601.8C86.2543 601.633 86.3177 601.417 86.3177 601.15V600.73L85.0577 600.99C84.771 601.043 84.5577 601.12 84.4177 601.22C84.2843 601.32 84.2177 601.467 84.2177 601.66ZM89.1308 603V598H90.0808L90.1308 598.84C90.3041 598.52 90.5341 598.283 90.8208 598.13C91.1141 597.977 91.4241 597.9 91.7508 597.9C92.1108 597.9 92.4408 597.983 92.7408 598.15C93.0474 598.31 93.2774 598.553 93.4308 598.88C93.5374 598.66 93.6841 598.477 93.8708 598.33C94.0574 598.183 94.2641 598.077 94.4908 598.01C94.7174 597.937 94.9408 597.9 95.1608 597.9C95.4808 597.9 95.7808 597.967 96.0608 598.1C96.3408 598.233 96.5674 598.437 96.7408 598.71C96.9141 598.983 97.0008 599.333 97.0008 599.76V603H95.9308V599.93C95.9308 599.517 95.8308 599.223 95.6308 599.05C95.4374 598.87 95.1941 598.78 94.9008 598.78C94.5541 598.78 94.2508 598.91 93.9908 599.17C93.7308 599.423 93.6008 599.793 93.6008 600.28V603H92.5308V599.93C92.5308 599.517 92.4308 599.223 92.2308 599.05C92.0374 598.87 91.7941 598.78 91.5008 598.78C91.3008 598.78 91.1008 598.833 90.9008 598.94C90.7008 599.047 90.5341 599.213 90.4008 599.44C90.2674 599.667 90.2008 599.967 90.2008 600.34V603H89.1308ZM100.823 603.1C100.323 603.1 99.883 602.997 99.503 602.79C99.1296 602.583 98.8363 602.287 98.623 601.9C98.4096 601.507 98.303 601.04 98.303 600.5C98.303 599.96 98.4063 599.497 98.613 599.11C98.8263 598.717 99.1163 598.417 99.483 598.21C99.8563 598.003 100.283 597.9 100.763 597.9C101.25 597.9 101.663 598 102.003 598.2C102.343 598.4 102.603 598.673 102.783 599.02C102.963 599.367 103.053 599.76 103.053 600.2C103.053 600.327 103.05 600.443 103.043 600.55C103.036 600.657 103.026 600.747 103.013 600.82H99.353C99.3996 601.287 99.5496 601.643 99.803 601.89C100.063 602.13 100.396 602.25 100.803 602.25C101.136 602.25 101.406 602.187 101.613 602.06C101.82 601.933 101.983 601.757 102.103 601.53L102.953 601.93C102.78 602.297 102.503 602.583 102.123 602.79C101.75 602.997 101.316 603.1 100.823 603.1ZM100.743 598.75C100.376 598.75 100.073 598.857 99.833 599.07C99.5996 599.283 99.4496 599.593 99.383 600H102.013C101.986 599.6 101.86 599.293 101.633 599.08C101.406 598.86 101.11 598.75 100.743 598.75Z" fill="black"/>
<path d="M144.833 597.6V597.6C144.833 596.768 145.168 595.97 145.762 595.387C146.356 594.804 147.159 594.484 147.991 594.5L147.991 594.5L148.003 594.5C149.004 594.495 149.96 594.919 150.627 595.666L151 596.084L151.373 595.666C152.04 594.919 152.996 594.495 153.998 594.5L153.998 594.5L154.009 594.5C154.841 594.484 155.645 594.804 156.239 595.387C156.832 595.97 157.167 596.768 157.167 597.6V597.6C157.167 599.182 156.223 600.626 154.882 601.988C154.219 602.663 153.477 603.298 152.742 603.904C152.533 604.076 152.324 604.247 152.117 604.415C151.73 604.731 151.351 605.039 151.002 605.337C150.635 605.022 150.236 604.696 149.829 604.363C149.64 604.209 149.45 604.053 149.261 603.897C148.526 603.29 147.784 602.655 147.12 601.982C145.778 600.622 144.833 599.183 144.833 597.6Z" fill="white" stroke="#262626"/>
<path d="M163.03 603V598.47C163.03 598.343 163.03 598.207 163.03 598.06C163.037 597.913 163.043 597.76 163.05 597.6C162.823 597.82 162.563 598.01 162.27 598.17C161.977 598.323 161.68 598.433 161.38 598.5L161.18 597.57C161.313 597.55 161.473 597.503 161.66 597.43C161.853 597.357 162.05 597.263 162.25 597.15C162.45 597.037 162.633 596.917 162.8 596.79C162.967 596.657 163.097 596.527 163.19 596.4H164.09V603H163.03ZM167.953 603.1C167.333 603.1 166.793 602.963 166.333 602.69C165.88 602.41 165.57 602.02 165.403 601.52L166.443 601.03C166.537 601.397 166.703 601.68 166.943 601.88C167.183 602.08 167.533 602.18 167.993 602.18C168.38 602.18 168.68 602.08 168.893 601.88C169.107 601.673 169.213 601.403 169.213 601.07C169.213 600.743 169.117 600.503 168.923 600.35C168.737 600.19 168.437 600.11 168.023 600.11C167.87 600.11 167.7 600.12 167.513 600.14V599.24C167.573 599.247 167.63 599.253 167.683 599.26C167.743 599.26 167.8 599.26 167.853 599.26C168.287 599.26 168.597 599.173 168.783 599C168.97 598.827 169.063 598.557 169.063 598.19C169.063 597.877 168.967 597.637 168.773 597.47C168.58 597.303 168.31 597.22 167.963 597.22C167.597 597.22 167.31 597.307 167.103 597.48C166.897 597.653 166.743 597.897 166.643 598.21L165.663 597.8C165.803 597.347 166.083 596.983 166.503 596.71C166.923 596.43 167.427 596.29 168.013 596.29C168.487 596.29 168.88 596.37 169.193 596.53C169.513 596.683 169.75 596.893 169.903 597.16C170.063 597.42 170.143 597.713 170.143 598.04C170.143 598.373 170.08 598.657 169.953 598.89C169.827 599.117 169.667 599.293 169.473 599.42C169.287 599.547 169.097 599.627 168.903 599.66V599.68C169.157 599.687 169.387 599.75 169.593 599.87C169.807 599.99 169.977 600.157 170.103 600.37C170.23 600.583 170.293 600.827 170.293 601.1C170.293 601.5 170.193 601.85 169.993 602.15C169.793 602.45 169.517 602.683 169.163 602.85C168.817 603.017 168.413 603.1 167.953 603.1ZM171.583 603V602.21C172.216 601.77 172.746 601.377 173.173 601.03C173.606 600.677 173.953 600.357 174.213 600.07C174.473 599.777 174.659 599.497 174.773 599.23C174.893 598.963 174.953 598.693 174.953 598.42C174.953 598.073 174.839 597.79 174.613 597.57C174.393 597.343 174.089 597.23 173.703 597.23C173.289 597.23 172.959 597.37 172.713 597.65C172.473 597.923 172.336 598.3 172.303 598.78L171.373 598.35C171.433 597.723 171.673 597.227 172.093 596.86C172.513 596.487 173.069 596.3 173.763 596.3C174.249 596.3 174.663 596.393 175.003 596.58C175.343 596.767 175.603 597.017 175.783 597.33C175.963 597.643 176.053 597.993 176.053 598.38C176.053 598.8 175.949 599.207 175.743 599.6C175.536 599.987 175.209 600.383 174.763 600.79C174.316 601.197 173.729 601.633 173.003 602.1V602.12C173.083 602.113 173.193 602.107 173.333 602.1C173.473 602.093 173.613 602.09 173.753 602.09C173.893 602.083 174.006 602.08 174.093 602.08H176.173V603H171.583Z" fill="black"/>
<rect y="632" width="189" height="220" rx="12" fill="#C4C4C4"/>
</svg>
