<svg width="354" height="26" viewBox="0 0 354 26" fill="none" xmlns="http://www.w3.org/2000/svg">
<path d="M68.98 7.81H63.632V10.792H67.804V11.842H63.632V16H62.512V6.76H68.98V7.81ZM72.9793 8.86C73.642 8.86 74.2253 9.00467 74.7293 9.294C75.2426 9.58333 75.644 10.0033 75.9333 10.554C76.2226 11.0953 76.3673 11.744 76.3673 12.5C76.3673 13.256 76.2226 13.9093 75.9333 14.46C75.644 15.0013 75.2426 15.4167 74.7293 15.706C74.2253 15.9953 73.642 16.14 72.9793 16.14C72.326 16.14 71.7426 15.9953 71.2293 15.706C70.716 15.4167 70.3146 15.0013 70.0253 14.46C69.736 13.9093 69.5913 13.256 69.5913 12.5C69.5913 11.744 69.736 11.0953 70.0253 10.554C70.3146 10.0033 70.716 9.58333 71.2293 9.294C71.7426 9.00467 72.326 8.86 72.9793 8.86ZM72.9793 9.826C72.27 9.826 71.7146 10.064 71.3133 10.54C70.912 11.016 70.7113 11.6693 70.7113 12.5C70.7113 13.3307 70.912 13.984 71.3133 14.46C71.7146 14.936 72.27 15.174 72.9793 15.174C73.6886 15.174 74.244 14.936 74.6453 14.46C75.0466 13.984 75.2473 13.3307 75.2473 12.5C75.2473 11.6693 75.0466 11.016 74.6453 10.54C74.244 10.064 73.6886 9.826 72.9793 9.826ZM79.5398 5.78V14.222C79.5398 14.5767 79.6052 14.824 79.7358 14.964C79.8665 15.0947 80.0765 15.16 80.3658 15.16C80.5525 15.16 80.7065 15.146 80.8278 15.118C80.9492 15.09 81.1125 15.0387 81.3178 14.964L81.1358 15.944C80.8278 16.0747 80.4825 16.14 80.0998 16.14C78.9798 16.14 78.4198 15.5147 78.4198 14.264V5.78H79.5398ZM83.8191 5.78V14.222C83.8191 14.5767 83.8845 14.824 84.0151 14.964C84.1458 15.0947 84.3558 15.16 84.6451 15.16C84.8318 15.16 84.9858 15.146 85.1071 15.118C85.2285 15.09 85.3918 15.0387 85.5971 14.964L85.4151 15.944C85.1071 16.0747 84.7618 16.14 84.3791 16.14C83.2591 16.14 82.6991 15.5147 82.6991 14.264V5.78H83.8191ZM89.9324 8.86C90.5951 8.86 91.1784 9.00467 91.6824 9.294C92.1958 9.58333 92.5971 10.0033 92.8864 10.554C93.1758 11.0953 93.3204 11.744 93.3204 12.5C93.3204 13.256 93.1758 13.9093 92.8864 14.46C92.5971 15.0013 92.1958 15.4167 91.6824 15.706C91.1784 15.9953 90.5951 16.14 89.9324 16.14C89.2791 16.14 88.6958 15.9953 88.1824 15.706C87.6691 15.4167 87.2678 15.0013 86.9784 14.46C86.6891 13.9093 86.5444 13.256 86.5444 12.5C86.5444 11.744 86.6891 11.0953 86.9784 10.554C87.2678 10.0033 87.6691 9.58333 88.1824 9.294C88.6958 9.00467 89.2791 8.86 89.9324 8.86ZM89.9324 9.826C89.2231 9.826 88.6678 10.064 88.2664 10.54C87.8651 11.016 87.6644 11.6693 87.6644 12.5C87.6644 13.3307 87.8651 13.984 88.2664 14.46C88.6678 14.936 89.2231 15.174 89.9324 15.174C90.6418 15.174 91.1971 14.936 91.5984 14.46C91.9998 13.984 92.2004 13.3307 92.2004 12.5C92.2004 11.6693 91.9998 11.016 91.5984 10.54C91.1971 10.064 90.6418 9.826 89.9324 9.826ZM103.988 9H105.234L102.798 16H101.678L99.7042 10.428L97.8422 16H96.7222L94.2862 9H95.5322L97.2962 14.698L99.2002 9H100.32L102.224 14.698L103.988 9ZM107.473 7.656C107.221 7.656 107.016 7.58133 106.857 7.432C106.708 7.27333 106.633 7.068 106.633 6.816C106.633 6.564 106.708 6.36333 106.857 6.214C107.016 6.05533 107.221 5.976 107.473 5.976C107.725 5.976 107.926 6.05533 108.075 6.214C108.234 6.36333 108.313 6.564 108.313 6.816C108.313 7.068 108.234 7.27333 108.075 7.432C107.926 7.58133 107.725 7.656 107.473 7.656ZM108.033 9V16H106.913V9H108.033ZM110.632 16V9H111.612L111.682 10.092C111.925 9.65333 112.256 9.34067 112.676 9.154C113.096 8.958 113.549 8.86 114.034 8.86C114.538 8.86 114.995 8.958 115.406 9.154C115.817 9.34067 116.143 9.63 116.386 10.022C116.638 10.414 116.764 10.9133 116.764 11.52V16H115.644V11.912C115.644 11.1373 115.476 10.6007 115.14 10.302C114.813 9.994 114.407 9.84 113.922 9.84C113.586 9.84 113.25 9.91933 112.914 10.078C112.578 10.2367 112.298 10.4933 112.074 10.848C111.859 11.2027 111.752 11.6787 111.752 12.276V16H110.632ZM123.066 15.104C123.729 15.104 124.247 15.258 124.62 15.566C124.993 15.8647 125.18 16.266 125.18 16.77C125.18 17.2273 125.026 17.624 124.718 17.96C124.419 18.296 124.013 18.5527 123.5 18.73C122.996 18.9167 122.427 19.01 121.792 19.01C120.691 19.01 119.865 18.8233 119.314 18.45C118.773 18.0767 118.502 17.6287 118.502 17.106C118.502 16.7887 118.591 16.4993 118.768 16.238C118.945 15.9767 119.239 15.79 119.65 15.678C119.426 15.5753 119.244 15.4353 119.104 15.258C118.964 15.0713 118.894 14.824 118.894 14.516C118.894 14.2267 118.978 13.9653 119.146 13.732C119.314 13.4893 119.566 13.3027 119.902 13.172C119.547 12.9667 119.277 12.696 119.09 12.36C118.903 12.024 118.81 11.646 118.81 11.226C118.81 10.7593 118.931 10.3487 119.174 9.994C119.426 9.63933 119.767 9.364 120.196 9.168C120.625 8.96267 121.12 8.86 121.68 8.86C122.268 8.86 122.795 8.97667 123.262 9.21C123.327 8.74333 123.533 8.37933 123.878 8.118C124.233 7.84733 124.648 7.712 125.124 7.712H125.194L125.446 8.706H125.348C124.919 8.706 124.583 8.78533 124.34 8.944C124.097 9.10267 123.962 9.35 123.934 9.686C124.345 10.1153 124.55 10.6287 124.55 11.226C124.55 11.6833 124.429 12.094 124.186 12.458C123.943 12.8127 123.603 13.0927 123.164 13.298C122.735 13.494 122.24 13.592 121.68 13.592C121.335 13.592 121.013 13.5593 120.714 13.494C120.434 13.578 120.233 13.6947 120.112 13.844C119.991 13.9933 119.93 14.1567 119.93 14.334C119.93 14.8473 120.294 15.104 121.022 15.104H123.066ZM121.68 9.77C121.195 9.77 120.789 9.90533 120.462 10.176C120.135 10.4373 119.972 10.7873 119.972 11.226C119.972 11.6553 120.135 12.0053 120.462 12.276C120.789 12.5467 121.195 12.682 121.68 12.682C122.165 12.682 122.571 12.5467 122.898 12.276C123.225 12.0053 123.388 11.6553 123.388 11.226C123.388 10.7873 123.225 10.4373 122.898 10.176C122.571 9.90533 122.165 9.77 121.68 9.77ZM121.778 18.072C122.59 18.072 123.187 17.9507 123.57 17.708C123.953 17.4747 124.144 17.204 124.144 16.896C124.144 16.644 124.041 16.4433 123.836 16.294C123.64 16.1447 123.281 16.07 122.758 16.07H120.602C120.303 16.07 120.051 16.1447 119.846 16.294C119.641 16.4527 119.538 16.6673 119.538 16.938C119.538 17.2833 119.734 17.5587 120.126 17.764C120.527 17.9693 121.078 18.072 121.778 18.072Z" fill="black"/>
<path d="M151.372 16V6.76H158.064V8.048H152.87V10.708H156.93V11.968H152.87V14.712H158.26V16H151.372ZM161.154 9L162.82 11.534L164.486 9H166.208L163.702 12.43L166.25 16H164.472L162.722 13.368L160.916 16H159.208L161.84 12.472L159.348 9H161.154ZM167.76 18.94V9H169.09L169.16 10.316C169.365 9.87733 169.678 9.52733 170.098 9.266C170.518 8.99533 171.003 8.86 171.554 8.86C172.123 8.86 172.636 9.00467 173.094 9.294C173.56 9.58333 173.929 9.99867 174.2 10.54C174.48 11.0813 174.62 11.73 174.62 12.486C174.62 13.2513 174.48 13.9093 174.2 14.46C173.92 15.0013 173.542 15.4167 173.066 15.706C172.599 15.9953 172.081 16.14 171.512 16.14C170.989 16.14 170.536 16.0233 170.154 15.79C169.771 15.5473 169.472 15.2347 169.258 14.852V18.94H167.76ZM171.19 14.922C171.787 14.922 172.258 14.7073 172.604 14.278C172.949 13.8487 173.122 13.256 173.122 12.5C173.122 11.744 172.954 11.1513 172.618 10.722C172.282 10.2833 171.815 10.064 171.218 10.064C170.63 10.064 170.154 10.2833 169.79 10.722C169.435 11.1607 169.258 11.7533 169.258 12.5C169.258 13.2373 169.43 13.8253 169.776 14.264C170.13 14.7027 170.602 14.922 171.19 14.922ZM177.993 5.85V14.04C177.993 14.3853 178.054 14.6233 178.175 14.754C178.296 14.8847 178.497 14.95 178.777 14.95C178.945 14.95 179.085 14.9407 179.197 14.922C179.318 14.894 179.468 14.8473 179.645 14.782L179.477 15.902C179.15 16.0607 178.763 16.14 178.315 16.14C177.69 16.14 177.228 15.9813 176.929 15.664C176.64 15.3467 176.495 14.8473 176.495 14.166V5.85H177.993ZM183.936 8.86C184.618 8.86 185.22 9.00467 185.742 9.294C186.265 9.58333 186.671 10.0033 186.96 10.554C187.259 11.0953 187.408 11.744 187.408 12.5C187.408 13.256 187.259 13.9093 186.96 14.46C186.671 15.0013 186.265 15.4167 185.742 15.706C185.22 15.9953 184.618 16.14 183.936 16.14C183.255 16.14 182.653 15.9953 182.13 15.706C181.608 15.4167 181.197 15.0013 180.898 14.46C180.6 13.9093 180.45 13.256 180.45 12.5C180.45 11.744 180.6 11.0953 180.898 10.554C181.197 10.0033 181.608 9.58333 182.13 9.294C182.653 9.00467 183.255 8.86 183.936 8.86ZM183.936 10.036C183.32 10.036 182.835 10.2507 182.48 10.68C182.126 11.1 181.948 11.7067 181.948 12.5C181.948 13.2933 182.126 13.9047 182.48 14.334C182.835 14.754 183.32 14.964 183.936 14.964C184.552 14.964 185.033 14.754 185.378 14.334C185.733 13.9047 185.91 13.2933 185.91 12.5C185.91 11.7067 185.733 11.1 185.378 10.68C185.033 10.2507 184.552 10.036 183.936 10.036ZM189.293 16V9H190.567L190.707 10.26C191.09 9.32667 191.822 8.86 192.905 8.86C193.045 8.86 193.185 8.874 193.325 8.902C193.465 8.92067 193.582 8.95333 193.675 9L193.465 10.316C193.362 10.2787 193.246 10.2507 193.115 10.232C192.994 10.204 192.826 10.19 192.611 10.19C192.312 10.19 192.023 10.2693 191.743 10.428C191.472 10.5773 191.244 10.8107 191.057 11.128C190.88 11.436 190.791 11.8233 190.791 12.29V16H189.293ZM197.992 16.14C197.292 16.14 196.676 15.9953 196.144 15.706C195.621 15.4167 195.211 15.0013 194.912 14.46C194.613 13.9093 194.464 13.256 194.464 12.5C194.464 11.744 194.609 11.0953 194.898 10.554C195.197 10.0033 195.603 9.58333 196.116 9.294C196.639 9.00467 197.236 8.86 197.908 8.86C198.589 8.86 199.168 9 199.644 9.28C200.12 9.56 200.484 9.94267 200.736 10.428C200.988 10.9133 201.114 11.464 201.114 12.08C201.114 12.2573 201.109 12.4207 201.1 12.57C201.091 12.7193 201.077 12.8453 201.058 12.948H195.934C195.999 13.6013 196.209 14.1007 196.564 14.446C196.928 14.782 197.395 14.95 197.964 14.95C198.431 14.95 198.809 14.8613 199.098 14.684C199.387 14.5067 199.616 14.2593 199.784 13.942L200.974 14.502C200.731 15.0153 200.344 15.4167 199.812 15.706C199.289 15.9953 198.683 16.14 197.992 16.14ZM197.88 10.05C197.367 10.05 196.942 10.1993 196.606 10.498C196.279 10.7967 196.069 11.2307 195.976 11.8H199.658C199.621 11.24 199.443 10.8107 199.126 10.512C198.809 10.204 198.393 10.05 197.88 10.05Z" fill="black"/>
<line x1="150" y1="25.5" x2="202" y2="25.5" stroke="#DA1E28"/>
<path d="M230.48 6.62C231.292 6.62 231.992 6.788 232.58 7.124C233.168 7.45067 233.658 7.936 234.05 8.58L233.112 9.308C232.767 8.71067 232.375 8.29067 231.936 8.048C231.507 7.796 230.984 7.67 230.368 7.67C229.621 7.67 229.075 7.81933 228.73 8.118C228.385 8.41667 228.212 8.78067 228.212 9.21C228.212 9.53667 228.315 9.826 228.52 10.078C228.725 10.3207 229.136 10.512 229.752 10.652L231.754 11.1C232.641 11.296 233.257 11.5947 233.602 11.996C233.957 12.388 234.134 12.878 234.134 13.466C234.134 13.9887 233.985 14.4553 233.686 14.866C233.397 15.2673 232.986 15.58 232.454 15.804C231.922 16.028 231.297 16.14 230.578 16.14C229.579 16.14 228.753 15.944 228.1 15.552C227.447 15.1507 226.947 14.6653 226.602 14.096L227.582 13.298C227.853 13.83 228.235 14.264 228.73 14.6C229.234 14.9267 229.873 15.09 230.648 15.09C231.367 15.09 231.931 14.9593 232.342 14.698C232.762 14.4367 232.972 14.0587 232.972 13.564C232.972 13.2653 232.874 12.9993 232.678 12.766C232.482 12.5233 232.113 12.3413 231.572 12.22L229.402 11.73C228.543 11.5433 227.932 11.24 227.568 10.82C227.213 10.4 227.036 9.91467 227.036 9.364C227.036 8.86933 227.171 8.41667 227.442 8.006C227.722 7.586 228.119 7.25 228.632 6.998C229.155 6.746 229.771 6.62 230.48 6.62ZM236.271 16V5.78H237.391V10.05C237.633 9.63 237.955 9.32667 238.357 9.14C238.758 8.95333 239.197 8.86 239.673 8.86C240.177 8.86 240.634 8.958 241.045 9.154C241.455 9.34067 241.782 9.63 242.025 10.022C242.277 10.414 242.403 10.9133 242.403 11.52V16H241.283V11.912C241.283 11.1373 241.115 10.6007 240.779 10.302C240.452 9.994 240.046 9.84 239.561 9.84C239.225 9.84 238.889 9.91933 238.553 10.078C238.217 10.2367 237.937 10.498 237.713 10.862C237.498 11.2167 237.391 11.6927 237.391 12.29V16H236.271ZM249.027 11.478C249.027 10.9553 248.887 10.554 248.607 10.274C248.327 9.98467 247.93 9.84 247.417 9.84C246.931 9.84 246.521 9.94733 246.185 10.162C245.849 10.3673 245.601 10.7033 245.443 11.17L244.533 10.61C244.719 10.0873 245.065 9.66733 245.569 9.35C246.073 9.02333 246.698 8.86 247.445 8.86C247.949 8.86 248.406 8.94867 248.817 9.126C249.227 9.294 249.549 9.55533 249.783 9.91C250.025 10.2553 250.147 10.7033 250.147 11.254V14.642C250.147 14.978 250.324 15.146 250.679 15.146C250.856 15.146 251.029 15.1227 251.197 15.076L251.141 15.958C250.954 16.0513 250.711 16.098 250.413 16.098C250.067 16.098 249.769 16.014 249.517 15.846C249.274 15.678 249.115 15.4213 249.041 15.076C248.798 15.44 248.467 15.7107 248.047 15.888C247.627 16.056 247.211 16.14 246.801 16.14C246.39 16.14 246.007 16.07 245.653 15.93C245.298 15.79 245.013 15.58 244.799 15.3C244.593 15.0107 244.491 14.656 244.491 14.236C244.491 13.7133 244.663 13.284 245.009 12.948C245.363 12.6027 245.853 12.3693 246.479 12.248L249.027 11.744V11.478ZM245.639 14.18C245.639 14.4693 245.751 14.7073 245.975 14.894C246.208 15.0713 246.535 15.16 246.955 15.16C247.319 15.16 247.655 15.0993 247.963 14.978C248.28 14.8473 248.537 14.656 248.733 14.404C248.929 14.1427 249.027 13.8113 249.027 13.41V12.668L246.997 13.088C246.539 13.1813 246.199 13.312 245.975 13.48C245.751 13.648 245.639 13.8813 245.639 14.18ZM252.868 16V9H253.848L253.918 10.092C254.161 9.65333 254.492 9.34067 254.912 9.154C255.332 8.958 255.785 8.86 256.27 8.86C256.774 8.86 257.232 8.958 257.642 9.154C258.053 9.34067 258.38 9.63 258.622 10.022C258.874 10.414 259 10.9133 259 11.52V16H257.88V11.912C257.88 11.1373 257.712 10.6007 257.376 10.302C257.05 9.994 256.644 9.84 256.158 9.84C255.822 9.84 255.486 9.91933 255.15 10.078C254.814 10.2367 254.534 10.4933 254.31 10.848C254.096 11.2027 253.988 11.6787 253.988 12.276V16H252.868ZM265.302 15.104C265.965 15.104 266.483 15.258 266.856 15.566C267.23 15.8647 267.416 16.266 267.416 16.77C267.416 17.2273 267.262 17.624 266.954 17.96C266.656 18.296 266.25 18.5527 265.736 18.73C265.232 18.9167 264.663 19.01 264.028 19.01C262.927 19.01 262.101 18.8233 261.55 18.45C261.009 18.0767 260.738 17.6287 260.738 17.106C260.738 16.7887 260.827 16.4993 261.004 16.238C261.182 15.9767 261.476 15.79 261.886 15.678C261.662 15.5753 261.48 15.4353 261.34 15.258C261.2 15.0713 261.13 14.824 261.13 14.516C261.13 14.2267 261.214 13.9653 261.382 13.732C261.55 13.4893 261.802 13.3027 262.138 13.172C261.784 12.9667 261.513 12.696 261.326 12.36C261.14 12.024 261.046 11.646 261.046 11.226C261.046 10.7593 261.168 10.3487 261.41 9.994C261.662 9.63933 262.003 9.364 262.432 9.168C262.862 8.96267 263.356 8.86 263.916 8.86C264.504 8.86 265.032 8.97667 265.498 9.21C265.564 8.74333 265.769 8.37933 266.114 8.118C266.469 7.84733 266.884 7.712 267.36 7.712H267.43L267.682 8.706H267.584C267.155 8.706 266.819 8.78533 266.576 8.944C266.334 9.10267 266.198 9.35 266.17 9.686C266.581 10.1153 266.786 10.6287 266.786 11.226C266.786 11.6833 266.665 12.094 266.422 12.458C266.18 12.8127 265.839 13.0927 265.4 13.298C264.971 13.494 264.476 13.592 263.916 13.592C263.571 13.592 263.249 13.5593 262.95 13.494C262.67 13.578 262.47 13.6947 262.348 13.844C262.227 13.9933 262.166 14.1567 262.166 14.334C262.166 14.8473 262.53 15.104 263.258 15.104H265.302ZM263.916 9.77C263.431 9.77 263.025 9.90533 262.698 10.176C262.372 10.4373 262.208 10.7873 262.208 11.226C262.208 11.6553 262.372 12.0053 262.698 12.276C263.025 12.5467 263.431 12.682 263.916 12.682C264.402 12.682 264.808 12.5467 265.134 12.276C265.461 12.0053 265.624 11.6553 265.624 11.226C265.624 10.7873 265.461 10.4373 265.134 10.176C264.808 9.90533 264.402 9.77 263.916 9.77ZM264.014 18.072C264.826 18.072 265.424 17.9507 265.806 17.708C266.189 17.4747 266.38 17.204 266.38 16.896C266.38 16.644 266.278 16.4433 266.072 16.294C265.876 16.1447 265.517 16.07 264.994 16.07H262.838C262.54 16.07 262.288 16.1447 262.082 16.294C261.877 16.4527 261.774 16.6673 261.774 16.938C261.774 17.2833 261.97 17.5587 262.362 17.764C262.764 17.9693 263.314 18.072 264.014 18.072ZM268.988 16V5.78H270.108V10.05C270.35 9.63 270.672 9.32667 271.074 9.14C271.475 8.95333 271.914 8.86 272.39 8.86C272.894 8.86 273.351 8.958 273.762 9.154C274.172 9.34067 274.499 9.63 274.742 10.022C274.994 10.414 275.12 10.9133 275.12 11.52V16H274V11.912C274 11.1373 273.832 10.6007 273.496 10.302C273.169 9.994 272.763 9.84 272.278 9.84C271.942 9.84 271.606 9.91933 271.27 10.078C270.934 10.2367 270.654 10.498 270.43 10.862C270.215 11.2167 270.108 11.6927 270.108 12.29V16H268.988ZM281.744 11.478C281.744 10.9553 281.604 10.554 281.324 10.274C281.044 9.98467 280.647 9.84 280.134 9.84C279.648 9.84 279.238 9.94733 278.902 10.162C278.566 10.3673 278.318 10.7033 278.16 11.17L277.25 10.61C277.436 10.0873 277.782 9.66733 278.286 9.35C278.79 9.02333 279.415 8.86 280.162 8.86C280.666 8.86 281.123 8.94867 281.534 9.126C281.944 9.294 282.266 9.55533 282.5 9.91C282.742 10.2553 282.864 10.7033 282.864 11.254V14.642C282.864 14.978 283.041 15.146 283.396 15.146C283.573 15.146 283.746 15.1227 283.914 15.076L283.858 15.958C283.671 16.0513 283.428 16.098 283.13 16.098C282.784 16.098 282.486 16.014 282.234 15.846C281.991 15.678 281.832 15.4213 281.758 15.076C281.515 15.44 281.184 15.7107 280.764 15.888C280.344 16.056 279.928 16.14 279.518 16.14C279.107 16.14 278.724 16.07 278.37 15.93C278.015 15.79 277.73 15.58 277.516 15.3C277.31 15.0107 277.208 14.656 277.208 14.236C277.208 13.7133 277.38 13.284 277.726 12.948C278.08 12.6027 278.57 12.3693 279.196 12.248L281.744 11.744V11.478ZM278.356 14.18C278.356 14.4693 278.468 14.7073 278.692 14.894C278.925 15.0713 279.252 15.16 279.672 15.16C280.036 15.16 280.372 15.0993 280.68 14.978C280.997 14.8473 281.254 14.656 281.45 14.404C281.646 14.1427 281.744 13.8113 281.744 13.41V12.668L279.714 13.088C279.256 13.1813 278.916 13.312 278.692 13.48C278.468 13.648 278.356 13.8813 278.356 14.18ZM286.145 7.656C285.893 7.656 285.688 7.58133 285.529 7.432C285.38 7.27333 285.305 7.068 285.305 6.816C285.305 6.564 285.38 6.36333 285.529 6.214C285.688 6.05533 285.893 5.976 286.145 5.976C286.397 5.976 286.598 6.05533 286.747 6.214C286.906 6.36333 286.985 6.564 286.985 6.816C286.985 7.068 286.906 7.27333 286.747 7.432C286.598 7.58133 286.397 7.656 286.145 7.656ZM286.705 9V16H285.585V9H286.705Z" fill="black"/>
<g clip-path="url(#clip0_140_95)">
<path d="M345.5 14.9999H344.71L344.43 14.7299C345.63 13.3299 346.25 11.4199 345.91 9.38989C345.44 6.60989 343.12 4.38989 340.32 4.04989C336.09 3.52989 332.53 7.08989 333.05 11.3199C333.39 14.1199 335.61 16.4399 338.39 16.9099C340.42 17.2499 342.33 16.6299 343.73 15.4299L344 15.7099V16.4999L348.25 20.7499C348.66 21.1599 349.33 21.1599 349.74 20.7499C350.15 20.3399 350.15 19.6699 349.74 19.2599L345.5 14.9999ZM339.5 14.9999C337.01 14.9999 335 12.9899 335 10.4999C335 8.00989 337.01 5.99989 339.5 5.99989C341.99 5.99989 344 8.00989 344 10.4999C344 12.9899 341.99 14.9999 339.5 14.9999Z" fill="#161616"/>
</g>
<g clip-path="url(#clip1_140_95)">
<path d="M1 16C1.55 16 2 15.55 2 15V11C2 10.45 1.55 10 1 10C0.45 10 0 10.45 0 11V15C0 15.55 0.45 16 1 16ZM4 18C4.55 18 5 17.55 5 17V9C5 8.45 4.55 8 4 8C3.45 8 3 8.45 3 9V17C3 17.55 3.45 18 4 18ZM22 11V15C22 15.55 22.45 16 23 16C23.55 16 24 15.55 24 15V11C24 10.45 23.55 10 23 10C22.45 10 22 10.45 22 11ZM20 18C20.55 18 21 17.55 21 17V9C21 8.45 20.55 8 20 8C19.45 8 19 8.45 19 9V17C19 17.55 19.45 18 20 18ZM16.5 4H7.5C6.67 4 6 4.67 6 5.5V20.5C6 21.33 6.67 22 7.5 22H16.5C17.33 22 18 21.33 18 20.5V5.5C18 4.67 17.33 4 16.5 4ZM16 20H8V6H16V20Z" fill="#161616"/>
</g>
<defs>
<clipPath id="clip0_140_95">
<rect width="24" height="24" fill="white" transform="translate(330 1)"/>
</clipPath>
<clipPath id="clip1_140_95">
<rect width="24" height="24" fill="white" transform="translate(0 1)"/>
</clipPath>
</defs>
</svg>
